<svg width="578" height="578" viewBox="0 0 578 578" xmlns="http://www.w3.org/2000/svg"><title>newcity</title><g fill="none" fill-rule="evenodd"><path d="M542.867 223.438c-2.338-3.498-4.734-6.94-7.178-10.34-7.995-10.918-16.535-21.347-25.91-30.768-6.45-6.44-13.225-12.5-20.395-17.876 1.026-5.348 1.975-10.706 2.885-16.063v-.048l.67-9.91.337-4.955c.086-1.65.086-3.307.134-4.955l.23-9.93-.267-9.93c-.01-3.316-.394-6.613-.643-9.92l-.412-4.955c-.182-1.64-.46-3.278-.69-4.917-.03-.163-.048-.326-.067-.49 2.838.404 5.694.75 8.483 1.43l4.84 1.035c.796.182 1.61.335 2.406.536l2.376.69 4.745 1.39c.787.24 1.592.432 2.36.72l2.308.882c3.077 1.17 6.192 2.252 9.115 3.776l4.457 2.128 4.256 2.492c2.904 1.562 5.52 3.575 8.224 5.444 1.38.9 2.578 2.032 3.862 3.067 1.246 1.063 2.56 2.06 3.757 3.19 2.328 2.32 4.82 4.486 6.94 7.017 1.09 1.227 2.213 2.434 3.286 3.68l3.077 3.863 1.533 1.936 1.438 2.013 2.75 3.833c-2.654 11.865-6.01 23.568-9.737 35.146-3.767 11.645-7.927 23.165-12.44 34.542-2.167 5.445-4.41 10.86-6.73 16.246zm9.326 27.087c3.192 5.904 6.23 11.913 8.904 18.01l1.937 4.58c.575 1.524 1.236 3.068 1.744 4.582l.786 2.28.652 2.215.163.556c.047.173.056.27.085.412.057.26.125.518.192.777l.105.383c.03.173.048.412.067.623l.076.882c0 .057 0 .163-.01.096l-.02.164-.037.316-.03.345-.115.498c-.163.69-.23 1.304-.49 2.07l-.65 2.224-.787 2.272c-.508 1.523-1.17 3.056-1.734 4.58l-1.946 4.582c-2.674 6.105-5.712 12.105-8.904 18.01-3.192 5.903-6.575 11.702-10.14 17.367-1.17 1.887-2.36 3.756-3.566 5.615-6-13.073-12.5-25.926-19.59-38.453-2.886-5.07-5.867-10.083-8.963-15.03.077-.105.144-.22.22-.325 3.355-5.156 6.585-10.38 9.71-15.68 7.965-13.553 15.25-27.5 21.94-41.722l.258.402c3.565 5.665 6.95 11.463 10.14 17.367zm-4.754 122.578c4.303 11.405 8.26 22.945 11.808 34.58 3.373 11.052 6.364 22.218 8.74 33.432l-1.878 2.54-1.447 1.936-1.524 1.86-3.05 3.71c-1.063 1.198-2.165 2.338-3.248 3.517-2.09 2.406-4.534 4.438-6.805 6.642-1.17 1.063-2.444 1.993-3.662 3-1.245.968-2.405 2.04-3.747 2.875-2.626 1.735-5.138 3.623-7.936 5.09l-4.093 2.348-4.285 1.984c-2.808 1.437-5.818 2.444-8.78 3.546l-2.223.824c-.738.26-1.524.44-2.28.66l-4.593 1.296-2.282.65c-.776.183-1.572.327-2.348.49l-4.687.95c-.632.152-1.265.267-1.907.392l.374-4.285c.268-3.373.66-6.757.68-10.13l.307-10.122-.2-10.092c-.05-1.678-.04-3.365-.126-5.042l-.325-5.022-.652-10.035-.01-.163-.047-.26c-1.39-8.55-2.98-17.07-4.773-25.56 6.048-4.774 11.808-10.008 17.338-15.538 9.375-9.412 17.915-19.84 25.91-30.757 1.264-1.765 2.52-3.548 3.756-5.33 2.78 6.623 5.453 13.294 7.993 20.013zM492.22 470.76c0 3.307-.383 6.575-.623 9.863l-.403 4.927c-.03.258-.067.507-.106.766-.487.067-.976.125-1.456.202-1.59.19-3.172.45-4.773.603l-4.82.385c-3.22.23-6.412.594-9.66.584l-9.71.22-9.748-.27c-1.62-.046-3.24-.056-4.87-.152l-4.877-.345-9.556-.68c-5.445-.96-10.88-1.927-16.305-2.943.106-.144.2-.288.307-.43.987-1.343 1.85-2.78 2.78-4.16.88-1.41 1.868-2.742 2.664-4.21 1.63-2.893 3.374-5.702 4.744-8.71.71-1.496 1.476-2.953 2.138-4.458.623-1.524 1.236-3.048 1.85-4.572.306-.757.632-1.514.91-2.28l.748-2.34c.488-1.562.977-3.115 1.466-4.667.364-1.59.72-3.173 1.083-4.754l.527-2.37c.096-.468.163-.938.22-1.417 4.055-3.844 7.947-7.85 11.675-12l2.28-.546c1.525-.374 3.05-.748 4.582-1.112 1.495-.5 2.99-1.007 4.495-1.505l2.252-.748c.748-.287 1.466-.613 2.204-.92 1.468-.613 2.934-1.236 4.4-1.86 1.448-.67 2.857-1.427 4.295-2.146 2.904-1.38 5.616-3.125 8.406-4.745 2.598-1.61 5.128-3.325 7.62-5.117 1.495 7.447 2.837 14.923 4.122 22.41l.67 9.843.346 4.936c.086 1.648.095 3.297.143 4.945l.24 9.892-.258 9.88zm-3.326 29.425l-1.035 4.82c-.18.806-.334 1.61-.526 2.417l-.7 2.367-1.39 4.734c-.24.776-.44 1.58-.718 2.358l-.882 2.3c-1.18 3.067-2.262 6.182-3.786 9.096l-2.137 4.447-2.49 4.256c-1.564 2.895-3.576 5.512-5.455 8.205-.9 1.38-2.04 2.578-3.067 3.853-1.074 1.256-2.07 2.56-3.2 3.757-2.33 2.32-4.496 4.812-7.027 6.93-1.226 1.093-2.433 2.214-3.69 3.278l-3.87 3.077-1.937 1.524-2.013 1.437-3.853 2.752c-11.875-2.655-23.597-6-35.195-9.728-11.664-3.757-23.204-7.917-34.61-12.412-6.22-2.473-12.402-5.042-18.546-7.707 4.207-2.808 8.33-5.702 12.374-8.693 2.74-2.07 5.51-4.092 8.166-6.258 1.34-1.074 2.693-2.12 4.006-3.21l3.92-3.298c2.636-2.167 5.11-4.524 7.658-6.767 2.454-2.35 4.956-4.65 7.304-7.084 2.33-2.464 4.715-4.85 6.9-7.42 1.113-1.264 2.224-2.53 3.336-3.785 1.055-1.312 2.11-2.615 3.163-3.92.566-.67 1.102-1.35 1.64-2.04 6.507 1.274 13.044 2.453 19.59 3.555h.048l9.93.67 4.956.337c1.658.086 3.316.086 4.974.134l9.95.23 9.948-.268c3.316-.01 6.623-.393 9.93-.642l4.955-.413c1.582-.172 3.144-.43 4.716-.65-.365 2.596-.7 5.203-1.334 7.762zM346.248 539.07c-14.09-6.326-27.92-13.227-41.377-20.8-4.964-2.797-9.88-5.71-14.73-8.72 5.195-3.25 10.303-6.624 15.316-10.14 1.38-.98 2.74-1.966 4.102-2.953 22.217-2.07 43.457-7.59 63.144-16.035.134.028.26.076.393.105 9.49 2.646 19.073 4.946 28.696 7.026 1.343.287 2.675.556 4.017.834-4.17 5.012-8.645 9.833-13.332 14.482-9.403 9.306-19.812 17.778-30.728 25.715-5.052 3.613-10.208 7.14-15.5 10.485zm-18.987 11.195c-6 3.26-12.104 6.355-18.363 9.125l-4.725 2.003c-1.6.604-3.173 1.284-4.793 1.83l-2.416.834-2.444.73c-1.6.46-3.335.804-4.84.91-1.754-.106-3.307-.46-4.936-.91l-2.445-.72-2.416-.844c-1.62-.546-3.192-1.226-4.792-1.83l-4.716-2.004c-6.258-2.77-12.373-5.866-18.373-9.125-6-3.26-11.885-6.7-17.636-10.332-.22-.144-.44-.288-.67-.432 13.81-6.257 27.373-13.063 40.59-20.51 4.82-2.73 9.584-5.568 14.3-8.492 5.042 3.27 10.15 6.422 15.326 9.46 12.872 7.534 26.09 14.454 39.565 20.847-5.29 3.316-10.706 6.47-16.217 9.46zm-109.743-21.68c-10.917-7.937-21.326-16.41-30.728-25.707-3.308-3.297-6.52-6.68-9.586-10.14 10.246-2.195 20.444-4.687 30.575-7.514 2.155-.604 4.312-1.246 6.47-1.898 16.963 6.546 34.973 10.965 53.71 12.91 1.65 1.246 3.308 2.464 4.985 3.67 4.61 3.317 9.345 6.48 14.1 9.596-4.525 2.683-9.097 5.29-13.717 7.8-13.82 7.477-27.996 14.244-42.43 20.417-4.554-2.944-9-6-13.38-9.135zm-10.936 18.91c-11.434 4.294-22.993 8.243-34.648 11.79-11.07 3.363-22.255 6.354-33.488 8.72l-2.54-1.877-1.946-1.438-1.87-1.514-3.708-3.058c-1.198-1.054-2.348-2.157-3.518-3.24-2.415-2.09-4.457-4.524-6.66-6.786-1.065-1.17-1.995-2.444-3-3.66-.97-1.237-2.052-2.397-2.886-3.74-1.735-2.615-3.633-5.136-5.1-7.916l-2.347-4.092-1.995-4.275c-1.438-2.8-2.444-5.81-3.546-8.77l-.826-2.215c-.268-.748-.44-1.524-.67-2.28l-1.294-4.583-.652-2.28c-.173-.777-.316-1.563-.48-2.34l-.958-4.687c-.105-.44-.192-.89-.278-1.332l4.42.374c3.382.268 6.765.67 10.15.69l10.14.297 10.102-.2c1.687-.05 3.373-.04 5.05-.126l5.033-.326 10.054-.65.164-.01.26-.04c7.388-1.197 14.76-2.54 22.1-4.034.413.508.816 1.006 1.218 1.504l3.336 3.796c2.185 2.56 4.57 4.955 6.9 7.41 2.35 2.433 4.822 4.753 7.294 7.092 2.55 2.242 5.023 4.6 7.66 6.766l3.92 3.297c1.312 1.093 2.663 2.138 4.005 3.21 2.655 2.167 5.425 4.19 8.166 6.26 3.345 2.483 6.757 4.888 10.217 7.237-5.894 2.434-11.818 4.773-17.78 7.025zM93.234 491.8c-.086-.672-.173-1.343-.268-2.014-.202-1.59-.46-3.163-.614-4.764l-.373-4.81c-.23-3.212-.594-6.404-.584-9.643l-.22-9.69.258-9.73c.06-1.63.06-3.25.154-4.87l.355-4.868.68-9.536c.987-5.588 1.984-11.176 3.038-16.745.958.643 1.907 1.276 2.923 1.832 2.905 1.63 5.714 3.364 8.733 4.735 1.495.72 2.952 1.476 4.466 2.137 1.523.623 3.047 1.236 4.57 1.85.768.297 1.516.623 2.292.9l2.34.748c1.56.49 3.123.978 4.676 1.467 1.59.363 3.182.718 4.763 1.082l2.378.527c.796.162 1.64.23 2.454.354.403.048.805.105 1.208.153 2.597 2.77 5.262 5.463 8.012 8.09.077.65.154 1.313.288 1.955l.527 2.367c.364 1.58.72 3.172 1.083 4.763.49 1.543.978 3.095 1.476 4.658l.738 2.34c.278.766.604 1.523.91 2.28.614 1.525 1.228 3.05 1.85 4.572.662 1.505 1.43 2.962 2.138 4.448 1.37 3.01 3.115 5.818 4.754 8.712.786 1.467 1.773 2.8 2.655 4.208.93 1.38 1.793 2.818 2.78 4.16 1.218 1.63 2.397 3.306 3.614 4.945-6.23 1.198-12.47 2.32-18.728 3.384l-9.863.68-4.946.335c-1.648.096-3.307.096-4.955.143l-9.9.24-9.91-.26c-3.3 0-6.586-.373-9.874-.622l-4.936-.402c-.316-.03-.623-.077-.94-.115zM70.786 388.42c-9.317-9.385-17.81-19.784-25.754-30.672-1.898-2.636-3.757-5.3-5.588-7.994 6.642-14.942 13.917-29.597 21.95-43.84 2.95-5.214 6.018-10.37 9.19-15.45 3.087 4.888 6.278 9.7 9.604 14.425 2.07 24.765 8.454 48.315 18.403 69.91-2.482 9.037-4.686 18.143-6.67 27.296-.297 1.39-.575 2.77-.863 4.16-7.12-5.368-13.86-11.406-20.27-17.837zm15.66 42.66l-.01.03v.018l-.67 9.91-.325 4.946c-.095 1.658-.095 3.316-.143 4.965l-.23 9.93.278 9.928c0 3.317.393 6.614.642 9.92l.412 4.946c.172 1.65.46 3.288.68 4.927.02.116.038.22.048.336-2.55-.364-5.11-.7-7.61-1.313l-4.84-1.035c-.796-.182-1.61-.336-2.407-.527l-2.376-.7-4.744-1.38c-.786-.248-1.59-.44-2.358-.728l-2.31-.872c-3.076-1.18-6.19-2.262-9.115-3.786l-4.457-2.128-4.255-2.492c-2.904-1.552-5.52-3.565-8.224-5.444-1.38-.89-2.577-2.032-3.86-3.057-1.247-1.074-2.56-2.07-3.76-3.2-2.328-2.32-4.82-4.487-6.938-7.008-1.093-1.227-2.214-2.434-3.287-3.68l-3.077-3.873-1.534-1.936-1.437-2.012-2.75-3.834c2.654-11.866 6.008-23.57 9.737-35.137 3.767-11.646 7.926-23.167 12.44-34.553 2.157-5.425 4.39-10.82 6.71-16.19 1.208 1.707 2.434 3.404 3.67 5.08 2.08 2.743 4.113 5.503 6.28 8.158 1.072 1.332 2.127 2.683 3.21 3.997l3.306 3.91c2.167 2.636 4.534 5.1 6.777 7.65 2.358 2.452 4.658 4.944 7.102 7.293 2.462 2.33 4.858 4.696 7.427 6.89 1.265 1.103 2.53 2.215 3.796 3.327l3.93 3.153c2.5 2.118 5.232 3.95 7.85 5.895-1.285 6.546-2.474 13.102-3.576 19.677zm-52.782-90.163c-3.642-5.73-7.092-11.607-10.35-17.597-3.27-5.99-6.365-12.086-9.145-18.335l-2.004-4.716c-.604-1.592-1.284-3.164-1.83-4.784l-.844-2.406-.728-2.444c-.45-1.63-.806-3.278-.9-4.878.104-.738.094-1.716.315-2.473.2-.805.315-1.59.584-2.416l.728-2.435.843-2.415c.547-1.61 1.218-3.182 1.83-4.773l2.004-4.716c2.77-6.248 5.875-12.344 9.143-18.334 3.26-6 6.71-11.876 10.35-17.607 1.008-1.612 2.033-3.203 3.078-4.794 7.18 16.428 15.106 32.53 23.934 48.134 2.885 5.07 5.866 10.074 8.962 15.02-.077.114-.144.22-.22.335-3.355 5.147-6.586 10.38-9.71 15.67-8.032 13.66-15.355 27.72-22.093 42.058-1.342-2.013-2.664-4.035-3.95-6.096zM32.12 206.34c-4.302-11.416-8.26-22.946-11.807-34.592-3.374-11.05-6.364-22.207-8.74-33.43l1.877-2.53 1.448-1.947 1.524-1.858 3.048-3.71c1.063-1.188 2.166-2.338 3.25-3.508 2.098-2.415 4.532-4.447 6.804-6.642 1.17-1.073 2.444-2.003 3.66-3.01 1.247-.958 2.407-2.04 3.75-2.865 2.625-1.744 5.136-3.633 7.935-5.1l4.092-2.338 4.284-1.994c2.808-1.438 5.818-2.435 8.78-3.537l2.223-.825c.737-.27 1.523-.44 2.28-.67l4.59-1.295 2.292-.642c.767-.183 1.562-.326 2.34-.49l4.695-.958c.336-.076.69-.143 1.035-.21l-.364 4.14c-.26 3.374-.66 6.757-.68 10.13l-.307 10.122.202 10.093c.048 1.677.048 3.364.134 5.042l.326 5.022.642 10.034.01.153.048.27c.824 5.088 1.725 10.168 2.693 15.23-.67.526-1.342 1.053-1.994 1.6-1.302 1.054-2.615 2.108-3.92 3.162-1.264 1.1-2.53 2.213-3.794 3.325-2.578 2.185-4.965 4.562-7.428 6.89-2.444 2.35-4.764 4.813-7.112 7.276-2.243 2.55-4.61 5.014-6.776 7.65l-3.307 3.91c-1.093 1.313-2.137 2.665-3.21 3.997-2.167 2.655-4.2 5.425-6.27 8.157-1.475 1.984-2.913 3.987-4.332 6-1.33-3.336-2.644-6.69-3.92-10.055zm47.857 95.76c-2.923-4.304-5.76-8.675-8.444-13.132 2.636-4.178 5.368-8.29 8.176-12.354-.173 3.537-.27 7.093-.27 10.668 0 4.984.192 9.92.537 14.817zm5.272-132.27c2.52 12.576 5.49 25.094 8.97 37.497.144.508.297 1.016.45 1.524-8.223 20.32-13.34 42.202-14.788 65.07l-.087.116c-3.172 4.39-6.19 8.875-9.163 13.4-2.846-4.765-5.616-9.586-8.27-14.464-8.82-16.246-16.66-33-23.694-50.07 2.08-3.087 4.198-6.135 6.364-9.144 7.945-10.888 16.437-21.288 25.754-30.67 4.648-4.66 9.45-9.116 14.463-13.256zm1.235-61.12c0-3.306.384-6.584.623-9.862l.403-4.927c.03-.23.068-.46.097-.69.776-.095 1.552-.2 2.32-.306 1.6-.2 3.172-.46 4.772-.613l4.82-.373c3.22-.23 6.413-.594 9.662-.585l9.71-.23 9.747.27c1.618.056 3.238.056 4.868.152l4.878.355 9.556.68c4.486.785 8.98 1.58 13.457 2.405-.068.106-.135.2-.202.307-1.63 2.79-3.374 5.492-4.754 8.386-.71 1.438-1.486 2.837-2.147 4.285-.623 1.476-1.246 2.933-1.87 4.4-.306.727-.632 1.456-.91 2.194l-.757 2.252c-.498 1.495-1.006 2.99-1.505 4.485-.374 1.524-.747 3.048-1.112 4.572l-.556 2.28c-.172.758-.24 1.544-.373 2.31l-.432 2.943c-2.386 2.205-4.715 4.467-6.996 6.786-1.524.2-3.048.403-4.582.594-.795.125-1.61.182-2.406.345l-2.367.537c-1.58.355-3.172.72-4.763 1.074-1.552.488-3.115.977-4.677 1.476l-2.34.738c-.765.278-1.523.604-2.29.9-1.514.624-3.047 1.237-4.57 1.85-1.506.662-2.972 1.43-4.458 2.138-3.02 1.37-5.828 3.115-8.732 4.744-1.466.786-2.798 1.773-4.217 2.655-1.38.93-2.818 1.793-4.16 2.77-.153.106-.297.21-.44.316-.74-4.035-1.457-8.07-2.147-12.115l-.68-9.853-.336-4.936c-.096-1.64-.096-3.288-.154-4.937l-.24-9.89.26-9.883zm3.326-29.425l1.036-4.82c.182-.806.336-1.61.537-2.416l.69-2.368 1.39-4.735c.25-.786.44-1.582.728-2.358l.874-2.3c1.18-3.068 2.262-6.184 3.795-9.097l2.127-4.448 2.492-4.255c1.56-2.904 3.574-5.51 5.453-8.205.9-1.38 2.04-2.578 3.067-3.862 1.073-1.246 2.07-2.55 3.2-3.748 2.33-2.32 4.506-4.81 7.026-6.93 1.237-1.092 2.445-2.213 3.69-3.287l3.873-3.067 1.944-1.533 2.013-1.428 3.844-2.75c11.876 2.653 23.608 5.998 35.196 9.727 11.673 3.757 23.204 7.917 34.61 12.412 4.763 1.887 9.508 3.852 14.223 5.855-1.6 1.112-3.192 2.233-4.774 3.364-10.936 7.983-21.383 16.504-30.815 25.868-7.666 7.65-14.797 15.748-20.874 24.44-5.463-1.043-10.936-2.02-16.418-2.932l-.03-.01h-.018l-9.93-.67-4.955-.326c-1.658-.096-3.317-.096-4.975-.144l-9.95-.22-9.947.268c-3.317 0-6.623.384-9.93.642l-4.955.403c-1.65.18-3.288.47-4.936.69-.21.037-.432.066-.643.095.364-2.636.71-5.272 1.34-7.86zm138.145-40.868c15.65 6.862 30.996 14.405 45.88 22.782 4.976 2.798 9.883 5.712 14.733 8.72-3.96 2.474-7.85 5.052-11.703 7.688-27.268 1.668-53.137 8.54-76.64 19.64-7.446-1.956-14.932-3.74-22.456-5.368-2.52-.537-5.042-1.055-7.572-1.553 5.77-7.668 12.412-14.866 19.523-21.69 9.366-8.97 19.67-17.252 30.5-24.94 2.56-1.792 5.137-3.555 7.735-5.28zm8.99-5.732c5.674-3.556 11.482-6.94 17.396-10.122 5.915-3.19 11.934-6.22 18.04-8.894l4.59-1.937c1.534-.566 3.068-1.227 4.59-1.735l2.283-.786 2.223-.652.556-.163c.173-.038.27-.047.412-.086.26-.056.518-.114.767-.18l.394-.116c.173-.03.412-.038.623-.058l.642-.067.277-.02c.182.03.364.058.546.077l.336.02.507.114c.68.174 1.303.24 2.07.49l2.224.652 2.282.786c1.524.508 3.058 1.17 4.59 1.734l4.592 1.936c6.106 2.675 12.125 5.703 18.038 8.895 5.914 3.182 11.722 6.556 17.396 10.12 2.636 1.62 5.253 3.3 7.83 4.995-15.583 6.872-30.88 14.415-45.718 22.792-4.83 2.732-9.594 5.57-14.31 8.483-5.03-3.26-10.15-6.412-15.325-9.45-14.28-8.368-29.003-15.97-44.023-22.937 2.042-1.322 4.093-2.626 6.173-3.89zm122.09 11.032c10.83 7.696 21.143 15.958 30.478 24.95 5.76 5.52 11.214 11.28 16.14 17.347-11.137 2.31-22.216 4.965-33.21 8.022-21.556-9.21-44.962-14.923-69.49-16.428-3.717-2.607-7.484-5.147-11.29-7.64 4.525-2.683 9.097-5.29 13.716-7.8 15.47-8.368 31.39-15.844 47.606-22.592 2.032 1.36 4.045 2.74 6.048 4.14zm13.1-11.74c11.426-4.295 22.985-8.244 34.65-11.79 11.07-3.365 22.246-6.355 33.49-8.723l2.538 1.88 1.946 1.437 1.86 1.515 3.717 3.058c1.19 1.054 2.34 2.156 3.518 3.23 2.406 2.1 4.447 4.533 6.652 6.795 1.064 1.17 2.003 2.444 3.01 3.66.967 1.238 2.04 2.398 2.875 3.74 1.744 2.616 3.632 5.137 5.1 7.916l2.347 4.093 1.993 4.275c1.437 2.798 2.444 5.808 3.546 8.76l.823 2.224c.27.738.45 1.524.67 2.28l1.295 4.573.652 2.29c.182.776.326 1.562.49 2.338l.957 4.687c.096.403.163.815.25 1.227l-3.547-.307c-3.383-.268-6.767-.66-10.15-.68l-10.14-.307-10.103.2c-1.687.05-3.374.05-5.05.135l-5.033.317-10.054.65-.163.01-.26.05c-6.382 1.034-12.756 2.184-19.1 3.44-5.33-7.045-11.32-13.706-17.685-20.05-9.43-9.356-19.878-17.877-30.815-25.86-.987-.71-1.974-1.4-2.97-2.1 4.216-1.696 8.443-3.364 12.69-4.964zM485.39 87.518c.018 0 .046.008.065.008.096.72.183 1.438.288 2.157.2 1.59.46 3.163.613 4.763l.384 4.812c.22 3.21.584 6.402.584 9.642l.22 9.69-.267 9.728c-.058 1.62-.058 3.25-.154 4.87l-.354 4.868-.682 9.537c-.757 4.284-1.514 8.57-2.3 12.844-1.467-.998-2.943-1.966-4.447-2.896-2.79-1.63-5.5-3.374-8.405-4.744-1.438-.72-2.847-1.486-4.294-2.147-1.466-.623-2.942-1.246-4.4-1.86-.737-.306-1.465-.632-2.203-.92l-2.252-.748c-1.505-.507-3-1.006-4.496-1.504-1.534-.373-3.058-.737-4.582-1.11l-2.28-.557c-.768-.173-1.544-.24-2.31-.364-.327-.05-.653-.097-.98-.145-3.45-3.67-7.034-7.208-10.743-10.62l-.345-2.367c-.125-.767-.2-1.553-.374-2.31l-.546-2.28-1.122-4.573c-.498-1.495-.996-2.99-1.504-4.486l-.748-2.253c-.287-.738-.613-1.467-.92-2.195-.623-1.467-1.237-2.923-1.86-4.4-.67-1.447-1.437-2.846-2.156-4.284-1.38-2.894-3.125-5.607-4.754-8.386-1.006-1.62-2.06-3.202-3.134-4.783 5.348-1.007 10.706-1.956 16.073-2.876l9.863-.67 4.945-.346c1.65-.087 3.307-.087 4.956-.144l9.9-.24 9.91.26c3.297 0 6.585.382 9.872.622l4.937.403zm14.75 190.627c2.72 4.045 5.367 8.138 7.887 12.317-2.664 4.217-5.415 8.377-8.262 12.47.384-5.167.585-10.38.585-15.652 0-3.058-.077-6.106-.21-9.135zm-15.652 93.997c-.27-.958-.556-1.907-.834-2.856 8.453-19.82 13.926-41.205 15.88-63.575.078-.106.155-.21.23-.316 3.174-4.38 6.193-8.876 9.164-13.4 2.856 4.773 5.617 9.585 8.272 14.464 7.112 13.103 13.58 26.55 19.514 40.208-1.87 2.827-3.776 5.607-5.712 8.367-7.706 10.812-15.978 21.106-24.987 30.432-4.716 4.897-9.614 9.575-14.722 13.897-2.023-9.124-4.275-18.2-6.805-27.22zm-4.735 5.75c2.166 8.1 4.112 16.266 5.875 24.46.096.45.182.91.278 1.362-2.923 2.262-5.904 4.41-8.97 6.393-2.666 1.62-5.254 3.353-8.014 4.724-1.36.71-2.703 1.476-4.083 2.147-1.39.624-2.79 1.247-4.18 1.86-.7.307-1.39.633-2.09.92l-2.137.758c-1.428.508-2.846 1.016-4.265 1.524l-1.217.316c11.378-13.486 21.087-28.41 28.803-44.463zm-2.56-186.363c-8.08-15.68-18.086-30.22-29.693-43.312l.336.086c1.447.384 2.894.758 4.342 1.14 1.418.51 2.837 1.017 4.265 1.525l2.137.756c.71.278 1.4.613 2.09.92 1.39.614 2.79 1.237 4.188 1.86 1.38.66 2.713 1.428 4.083 2.147 2.762 1.36 5.35 3.105 8.004 4.725 2.004 1.294 3.96 2.664 5.904 4.083-.68 3.547-1.37 7.084-2.108 10.62-1.102 5.176-2.29 10.323-3.546 15.45zm-96.018-93.526c6.93-1.783 13.888-3.422 20.875-4.926 2.607-.556 5.214-1.083 7.82-1.59 1.506 2.03 2.963 4.1 4.324 6.21 1.62 2.654 3.373 5.233 4.744 7.984.71 1.37 1.476 2.702 2.147 4.082.623 1.39 1.246 2.78 1.86 4.17.306.7.642 1.39.93 2.09l.756 2.137c.51 1.42 1.017 2.838 1.516 4.256.383 1.448.767 2.885 1.15 4.333l.517 1.973c-14.04-12.192-29.712-22.553-46.638-30.72zm-101.51-20.56c3.22-2.127 6.478-4.197 9.794-6.18.22-.135.44-.26.66-.384 3.394 2.127 6.74 4.322 10.065 6.565-3.413-.163-6.834-.26-10.285-.26-3.43 0-6.843.097-10.236.26zm-128.378 51.892c.03-.143.048-.287.086-.43l.566-2.167 1.15-4.333c.507-1.42 1.015-2.837 1.523-4.256l.757-2.136c.288-.7.614-1.39.92-2.09.623-1.39 1.237-2.78 1.86-4.18.67-1.37 1.437-2.71 2.156-4.072 1.37-2.75 3.115-5.34 4.735-7.994.385-.603.806-1.188 1.2-1.782 3.42.65 6.833 1.313 10.236 2.022 5.147 1.093 10.265 2.27 15.373 3.517-14.617 7.716-28.227 17.1-40.563 27.9zm-52.763 70.582c-1.984-7.553-3.796-15.163-5.444-22.802-.815-3.872-1.582-7.745-2.33-11.626 3.326-2.512 6.74-4.898 10.246-7.074 2.77-1.62 5.454-3.355 8.33-4.725 1.418-.708 2.817-1.475 4.246-2.136 1.456-.614 2.913-1.227 4.36-1.85.73-.297 1.438-.623 2.176-.9l2.224-.75c1.486-.497 2.97-.996 4.447-1.494 1.514-.364 3.018-.738 4.523-1.102l2.252-.556c.68-.144 1.362-.22 2.042-.326-15.115 16.275-27.69 34.926-37.073 55.342zm33.71 226.36l-.93-.22c-1.506-.374-3.01-.738-4.525-1.112-1.477-.49-2.963-.987-4.448-1.486l-2.224-.747c-.738-.288-1.447-.604-2.175-.91-1.448-.614-2.905-1.228-4.36-1.85-1.43-.662-2.83-1.43-4.247-2.138-2.876-1.36-5.56-3.096-8.33-4.716-1.485-.92-2.952-1.89-4.408-2.876.45-2.28.91-4.563 1.38-6.834 1.447-6.767 3.01-13.505 4.715-20.195 8.05 15.594 18.01 30.058 29.55 43.083zm73.034 53.348c-9.182 2.51-18.44 4.735-27.757 6.73-1.62.344-3.248.67-4.878 1.005-3.834-4.705-7.4-9.574-10.562-14.644-1.62-2.76-3.364-5.444-4.725-8.32-.72-1.418-1.476-2.808-2.147-4.236-.614-1.457-1.227-2.904-1.85-4.352-.297-.728-.623-1.437-.91-2.166l-.748-2.233c-.5-1.477-.997-2.963-1.486-4.43-.287-1.16-.575-2.31-.853-3.46 16.506 14.81 35.36 27.05 55.918 36.106zm101.616 17.07c-.748.518-1.476 1.064-2.224 1.572-5.05 3.45-10.17 6.796-15.412 9.94-.22.134-.44.258-.65.383-5.033-3.152-9.998-6.41-14.858-9.823-1.073-.748-2.137-1.515-3.2-2.28 6.383.574 12.833.89 19.36.89 5.713 0 11.377-.24 16.984-.68zm122.885-52.58c-.24.958-.47 1.906-.7 2.865-.5 1.467-.998 2.953-1.496 4.43l-.748 2.223c-.287.738-.613 1.447-.91 2.175-.614 1.448-1.237 2.895-1.85 4.352-.67 1.428-1.428 2.818-2.147 4.236-1.362 2.876-3.106 5.56-4.726 8.32-2.186 3.498-4.563 6.9-7.083 10.217-2.348-.46-4.686-.93-7.025-1.42-7.265-1.532-14.492-3.22-21.67-5.06 17.625-8.54 33.88-19.456 48.354-32.338zM289.9 491.117c-112.59 0-204.19-91.437-204.19-203.836 0-112.39 91.6-203.837 204.19-203.837s204.19 91.447 204.19 203.837c0 112.4-91.6 203.836-204.19 203.836zm198.48-321.44c6.17 4.984 12.037 10.505 17.663 16.342 8.98 9.345 17.272 19.63 24.978 30.44 3.097 4.4 6.116 8.876 9 13.448-6.622 14.856-13.858 29.444-21.852 43.61-2.952 5.214-6.01 10.37-9.192 15.45-2.885-4.562-5.866-9.057-8.96-13.485-1.497-26.77-8.024-52.217-18.672-75.412 1.993-7.523 3.795-15.095 5.444-22.705.546-2.56 1.073-5.118 1.59-7.687zm77.366 4.17c3.987-11.675 7.61-23.493 10.524-35.58l.403-1.676-1.007-1.467-2.885-4.178-1.446-2.09-1.543-2.032-3.114-4.054c-1.093-1.312-2.243-2.596-3.355-3.89-2.175-2.665-4.743-4.984-7.14-7.457-1.236-1.208-2.597-2.282-3.89-3.432-1.333-1.1-2.58-2.318-4.017-3.296-2.808-2.032-5.55-4.188-8.597-5.865l-4.467-2.666-4.668-2.3c-3.077-1.63-6.326-2.81-9.537-4.074l-2.415-.94c-.806-.306-1.64-.517-2.464-.785l-4.936-1.505-2.473-.748c-.833-.21-1.667-.383-2.51-.575l-5.014-1.13c-3.335-.854-6.718-1.227-10.082-1.783-.163-.03-.325-.058-.48-.077-.18-1.064-.392-2.128-.65-3.182l-1.055-4.87c-.172-.804-.335-1.62-.537-2.424l-.7-2.385-1.408-4.774c-.25-.794-.44-1.6-.73-2.376l-.89-2.33c-1.198-3.095-2.3-6.238-3.843-9.18l-2.166-4.496-2.52-4.294c-1.59-2.933-3.623-5.57-5.53-8.29-.91-1.4-2.06-2.608-3.106-3.902-1.083-1.255-2.1-2.578-3.24-3.786-2.358-2.338-4.552-4.85-7.102-6.987-1.246-1.103-2.463-2.224-3.728-3.307l-3.9-3.087-1.966-1.543-2.022-1.438-4.055-2.885-.18-.134-.22.058c-11.992 2.684-23.81 6.067-35.493 9.843-11.684 3.786-23.233 7.965-34.65 12.49-4.82 1.916-9.622 3.91-14.395 5.94-3.613-2.49-7.284-4.935-11.022-7.273-5.76-3.662-11.665-7.122-17.684-10.4-6.02-3.287-12.153-6.402-18.45-9.19l-4.754-2.033c-1.61-.613-3.192-1.293-4.83-1.85l-2.455-.862-2.492-.738c-1.677-.47-3.393-.853-5.223-.958-.96.115-1.725.096-2.636.335-.863.202-1.773.355-2.588.623l-2.492.748-2.454.853c-1.638.557-3.22 1.237-4.83 1.85l-4.754 2.033c-6.297 2.79-12.422 5.914-18.44 9.19-6.03 3.28-11.934 6.74-17.685 10.4-3.143 1.956-6.22 3.988-9.268 6.068-5.262-2.367-10.562-4.667-15.89-6.89-11.388-4.726-22.918-9.115-34.602-13.112-11.693-3.988-23.53-7.59-35.636-10.505l-1.686-.403-1.466 1.007-4.188 2.875-2.09 1.447-2.04 1.543-4.056 3.115c-1.322 1.092-2.607 2.233-3.9 3.345-2.665 2.166-4.994 4.734-7.467 7.13-1.208 1.227-2.29 2.588-3.44 3.882-1.103 1.333-2.32 2.57-3.298 4.007-2.042 2.808-4.198 5.54-5.875 8.578l-2.675 4.466-2.3 4.66c-1.64 3.066-2.818 6.305-4.083 9.516l-.95 2.416c-.306.805-.516 1.638-.775 2.453l-1.505 4.937-.757 2.463c-.21.834-.384 1.668-.575 2.502l-1.13 5.003c-.845 3.288-1.228 6.623-1.774 9.94-1.016.172-2.032.373-3.04.623l-4.868 1.044c-.805.182-1.63.345-2.434.537l-2.387.7-4.782 1.408c-.796.25-1.6.44-2.387.728l-2.33.89c-3.105 1.2-6.248 2.292-9.2 3.835L46.402 100l-4.313 2.52c-2.934 1.592-5.57 3.623-8.3 5.52-1.4.912-2.608 2.062-3.902 3.107-1.265 1.083-2.588 2.09-3.795 3.23-2.35 2.348-4.86 4.543-6.997 7.092-1.102 1.237-2.233 2.464-3.317 3.72l-3.096 3.9-1.534 1.955-1.447 2.023-2.895 4.044-.124.182.048.22c2.693 11.97 6.086 23.77 9.872 35.434 3.786 11.665 7.965 23.195 12.498 34.582 1.582 3.958 3.21 7.898 4.88 11.818-5.742 8.33-11.11 16.984-16.008 25.945-3.354 6.097-6.556 12.308-9.44 18.74l-2.11 4.878c-.64 1.677-1.34 3.297-1.945 5.022l-.91 2.58-.816 2.71-.2.68c-.068.24-.135.567-.203.845l-.363 1.735-.172.872-.067.66-.068.643-.028.317c-.02.316 0-.25-.058.786.048.632.096 1.274.163 1.917.03.306.067.642.106.94l.163.746c.23.99.43 2.072.718 2.934l.815 2.713.91 2.578c.603 1.725 1.303 3.345 1.945 5.023l2.11 4.878c2.884 6.43 6.085 12.642 9.44 18.748 5.118 9.345 10.725 18.364 16.744 27.038-2.675 5.885-5.272 11.808-7.764 17.78-4.735 11.357-9.125 22.878-13.13 34.542-3.99 11.665-7.612 23.483-10.525 35.57l-.402 1.676 1.007 1.467 2.885 4.18 1.447 2.098 1.543 2.022 3.115 4.064c1.093 1.314 2.243 2.59 3.364 3.892 2.165 2.655 4.734 4.984 7.13 7.457 1.237 1.197 2.598 2.28 3.89 3.42 1.334 1.113 2.58 2.32 4.017 3.298 2.81 2.032 5.55 4.188 8.598 5.866l4.466 2.674 4.67 2.29c3.076 1.64 6.325 2.81 9.536 4.074l2.415.95c.806.306 1.64.517 2.464.775l4.936 1.505 2.473.748c.834.21 1.668.383 2.51.575l5.014 1.13c3.2.825 6.45 1.21 9.69 1.726.182 1.122.393 2.244.67 3.356l1.055 4.86c.183.814.336 1.628.537 2.434l.7 2.386 1.417 4.773c.24.795.44 1.6.73 2.376l.89 2.33c1.19 3.095 2.29 6.24 3.834 9.18l2.167 4.497 2.52 4.294c1.592 2.933 3.634 5.568 5.53 8.29.912 1.4 2.062 2.607 3.107 3.9 1.092 1.257 2.1 2.58 3.24 3.787 2.357 2.34 4.552 4.85 7.102 6.987 1.246 1.104 2.463 2.225 3.728 3.308l3.91 3.086 1.956 1.543 2.022 1.438 4.054 2.885.183.125.22-.048c12-2.684 23.817-6.077 35.5-9.844 11.684-3.786 23.234-7.965 34.64-12.488 6.526-2.588 12.996-5.31 19.427-8.12 7.083 4.688 14.377 9.116 21.9 13.21 6.107 3.354 12.327 6.536 18.768 9.42l4.888 2.1c1.678.65 3.297 1.35 5.032 1.945l2.588.91 2.713.816.68.21c.24.068.565.125.843.192l1.744.364.872.173.66.067 1.286.134c1.083.02.575-.02.94-.02l.478-.037.96-.087c.315-.03.65-.068.938-.106l.757-.163c.987-.23 2.07-.422 2.933-.71l2.722-.823 2.578-.91c1.735-.594 3.355-1.294 5.032-1.946l4.89-2.1c6.45-2.884 12.67-6.066 18.775-9.42 6.757-3.69 13.342-7.64 19.744-11.8 6.68 3.068 13.408 6.03 20.204 8.857 11.377 4.726 22.916 9.116 34.6 13.103 11.693 3.987 23.52 7.6 35.636 10.515l1.677.402 1.467-1.006 4.188-2.885 2.1-1.44 2.03-1.542 4.065-3.115c1.313-1.093 2.597-2.233 3.9-3.345 2.656-2.166 4.995-4.735 7.467-7.13 1.208-1.237 2.28-2.59 3.432-3.883 1.11-1.332 2.33-2.578 3.297-4.006 2.04-2.81 4.198-5.54 5.885-8.58l2.674-4.466 2.29-4.658c1.64-3.067 2.818-6.307 4.084-9.517l.95-2.417c.305-.805.516-1.64.784-2.453l1.505-4.937.748-2.463c.21-.834.383-1.668.575-2.5l1.14-5.014c.834-3.24 1.208-6.537 1.745-9.815 1.313-.21 2.616-.45 3.91-.766l4.87-1.054c.805-.182 1.63-.335 2.434-.537l2.387-.7 4.782-1.408c.796-.25 1.61-.44 2.387-.73l2.33-.89c3.104-1.19 6.248-2.29 9.2-3.834l4.495-2.155 4.313-2.52c2.934-1.583 5.57-3.624 8.302-5.522 1.4-.91 2.607-2.06 3.9-3.096 1.266-1.083 2.588-2.1 3.796-3.24 2.348-2.348 4.86-4.543 6.997-7.083 1.102-1.245 2.233-2.463 3.316-3.728l3.097-3.89 1.543-1.957 1.438-2.023 2.894-4.054.125-.173-.048-.22c-2.694-11.98-6.087-23.78-9.873-35.444-3.786-11.655-7.965-23.195-12.498-34.582-2.896-7.246-5.934-14.434-9.107-21.575 1.975-2.886 3.9-5.81 5.76-8.79 3.662-5.74 7.14-11.636 10.42-17.645 3.287-6.01 6.41-12.134 9.21-18.412l2.032-4.754c.613-1.61 1.294-3.183 1.85-4.822l.862-2.444.748-2.492c.46-1.697.853-3.336.95-5.272-.097-1.668-.48-3.48-.96-5.156l-.738-2.492-.862-2.445c-.556-1.638-1.237-3.22-1.85-4.83l-2.032-4.744c-2.8-6.278-5.923-12.403-9.21-18.413-3.288-6.01-6.758-11.904-10.42-17.655-.766-1.217-1.552-2.434-2.338-3.642 2.703-5.933 5.32-11.913 7.84-17.933 4.735-11.367 9.125-22.878 13.13-34.543z" fill="#fff"/><path d="M542.867 223.438c-2.338-3.498-4.734-6.94-7.178-10.34-7.995-10.918-16.535-21.346-25.91-30.768-6.45-6.44-13.225-12.498-20.395-17.875 1.026-5.35 1.975-10.707 2.885-16.064v-.048l.67-9.91.337-4.955c.086-1.65.086-3.307.134-4.955l.23-9.93-.268-9.93c-.01-3.316-.393-6.613-.642-9.92l-.412-4.955c-.182-1.64-.46-3.278-.69-4.917-.03-.163-.048-.326-.067-.49 2.838.404 5.694.75 8.483 1.43l4.84 1.035c.796.182 1.61.335 2.406.536l2.376.69 4.745 1.39c.787.24 1.592.432 2.36.72l2.308.882c3.077 1.17 6.192 2.252 9.115 3.776l4.457 2.128 4.256 2.492c2.904 1.562 5.52 3.575 8.223 5.444 1.38.9 2.578 2.032 3.862 3.067 1.246 1.063 2.56 2.06 3.757 3.19 2.328 2.32 4.82 4.486 6.94 7.017 1.09 1.227 2.213 2.434 3.286 3.68l3.077 3.863 1.533 1.936 1.438 2.013 2.75 3.833c-2.654 11.865-6.01 23.568-9.737 35.146-3.767 11.645-7.927 23.165-12.44 34.542-2.167 5.445-4.41 10.86-6.73 16.246zm9.326 27.087c3.192 5.904 6.23 11.913 8.904 18.01l1.937 4.58c.575 1.525 1.236 3.068 1.744 4.582l.786 2.28.652 2.215.163.556c.047.173.056.27.085.412.057.26.124.518.192.777l.105.383c.03.173.048.412.067.623l.076.882c0 .057 0 .163-.01.096l-.02.164-.037.316-.03.345-.115.498c-.163.69-.23 1.304-.49 2.07l-.65 2.224-.787 2.272c-.508 1.523-1.17 3.056-1.734 4.58l-1.946 4.582c-2.674 6.105-5.713 12.105-8.904 18.01-3.192 5.903-6.575 11.702-10.14 17.367-1.17 1.887-2.36 3.756-3.566 5.615-6-13.073-12.5-25.926-19.59-38.453-2.886-5.07-5.867-10.083-8.963-15.03.077-.104.144-.22.22-.325 3.355-5.156 6.585-10.38 9.71-15.68 7.965-13.553 15.25-27.5 21.94-41.722l.258.402c3.565 5.665 6.95 11.463 10.14 17.368zm-4.754 122.578c4.303 11.405 8.26 22.945 11.808 34.58 3.373 11.052 6.364 22.218 8.74 33.432l-1.878 2.54-1.447 1.936-1.524 1.86-3.05 3.71c-1.063 1.198-2.165 2.338-3.248 3.517-2.09 2.406-4.534 4.438-6.805 6.643-1.17 1.063-2.444 1.993-3.662 3-1.246.968-2.405 2.04-3.747 2.875-2.626 1.735-5.137 3.623-7.936 5.09l-4.093 2.348-4.285 1.984c-2.808 1.437-5.818 2.444-8.78 3.546l-2.223.824c-.738.26-1.524.44-2.28.662l-4.593 1.293-2.282.65c-.776.183-1.572.327-2.348.49l-4.687.95c-.632.152-1.265.267-1.907.392l.374-4.284c.268-3.373.66-6.757.68-10.13l.307-10.122-.2-10.092c-.05-1.678-.04-3.365-.126-5.042l-.325-5.022-.652-10.035-.01-.163-.047-.26c-1.39-8.55-2.98-17.07-4.773-25.56 6.048-4.774 11.808-10.008 17.338-15.538 9.375-9.412 17.915-19.84 25.91-30.757 1.264-1.765 2.52-3.547 3.756-5.33 2.78 6.623 5.453 13.294 7.993 20.013zM492.22 470.76c0 3.307-.383 6.575-.623 9.863l-.403 4.927c-.03.258-.067.508-.106.766-.488.067-.976.125-1.456.202-1.59.19-3.172.45-4.773.603l-4.82.385c-3.22.23-6.412.594-9.66.584l-9.71.22-9.748-.268c-1.62-.048-3.24-.058-4.87-.154l-4.878-.345-9.555-.68c-5.445-.96-10.88-1.927-16.305-2.943.106-.144.2-.287.307-.43.987-1.343 1.85-2.78 2.78-4.16.88-1.41 1.868-2.742 2.664-4.21 1.63-2.893 3.374-5.7 4.744-8.71.71-1.496 1.476-2.953 2.138-4.458.623-1.524 1.236-3.048 1.85-4.572.306-.757.632-1.514.91-2.28l.748-2.34c.488-1.562.977-3.115 1.466-4.667.364-1.59.72-3.173 1.083-4.754l.527-2.37c.096-.468.163-.938.22-1.417 4.055-3.844 7.946-7.85 11.675-12l2.28-.546c1.525-.374 3.05-.748 4.582-1.112 1.495-.5 2.99-1.007 4.495-1.505l2.252-.748c.748-.287 1.466-.613 2.205-.92 1.466-.613 2.932-1.236 4.4-1.86 1.446-.67 2.855-1.427 4.293-2.146 2.904-1.38 5.616-3.125 8.406-4.745 2.598-1.61 5.128-3.324 7.62-5.117 1.496 7.448 2.837 14.924 4.122 22.41l.67 9.843.346 4.936c.086 1.648.096 3.297.143 4.945l.24 9.892-.258 9.88zm-3.326 29.425l-1.035 4.82c-.18.806-.334 1.612-.526 2.417l-.7 2.367-1.39 4.734c-.24.776-.44 1.58-.718 2.358l-.882 2.3c-1.18 3.067-2.262 6.182-3.786 9.096l-2.137 4.447-2.49 4.256c-1.564 2.895-3.576 5.512-5.455 8.205-.9 1.38-2.04 2.578-3.067 3.853-1.074 1.256-2.07 2.56-3.2 3.757-2.33 2.32-4.497 4.812-7.027 6.93-1.226 1.093-2.433 2.214-3.69 3.278l-3.87 3.077-1.937 1.524-2.013 1.437-3.853 2.752c-11.875-2.655-23.597-6-35.195-9.728-11.664-3.757-23.204-7.917-34.61-12.412-6.22-2.473-12.402-5.042-18.546-7.706 4.207-2.81 8.33-5.703 12.374-8.694 2.74-2.07 5.51-4.092 8.166-6.258 1.342-1.074 2.693-2.12 4.006-3.21l3.92-3.298c2.636-2.167 5.11-4.524 7.658-6.767 2.454-2.35 4.956-4.65 7.304-7.084 2.33-2.464 4.715-4.85 6.9-7.42 1.113-1.264 2.224-2.53 3.336-3.785 1.054-1.312 2.11-2.615 3.163-3.92.566-.67 1.102-1.35 1.64-2.04 6.507 1.274 13.044 2.453 19.59 3.556h.048l9.93.67 4.956.336c1.658.086 3.316.086 4.974.134l9.95.23 9.948-.268c3.316-.01 6.623-.393 9.93-.642l4.955-.413c1.58-.172 3.144-.43 4.716-.65-.366 2.596-.7 5.203-1.334 7.762zM346.248 539.07c-14.09-6.326-27.92-13.227-41.377-20.8-4.964-2.797-9.88-5.71-14.73-8.72 5.195-3.25 10.303-6.624 15.316-10.14 1.38-.98 2.74-1.966 4.102-2.953 22.217-2.07 43.457-7.59 63.144-16.035.134.028.26.076.393.105 9.49 2.646 19.073 4.946 28.696 7.026 1.343.287 2.675.556 4.017.834-4.17 5.012-8.645 9.833-13.332 14.482-9.403 9.306-19.812 17.778-30.728 25.715-5.052 3.613-10.208 7.14-15.5 10.485zm-18.987 11.195c-6 3.26-12.104 6.355-18.363 9.125l-4.725 2.003c-1.6.604-3.173 1.284-4.793 1.83l-2.416.834-2.444.73c-1.6.46-3.336.804-4.84.91-1.754-.106-3.307-.46-4.936-.91l-2.444-.72-2.416-.844c-1.62-.546-3.192-1.226-4.792-1.83l-4.716-2.003c-6.26-2.77-12.374-5.866-18.374-9.125-6-3.26-11.884-6.7-17.635-10.332-.22-.144-.44-.288-.67-.432 13.81-6.257 27.373-13.062 40.59-20.51 4.82-2.73 9.584-5.568 14.3-8.492 5.042 3.27 10.15 6.422 15.326 9.46 12.872 7.534 26.09 14.454 39.565 20.847-5.29 3.316-10.706 6.47-16.217 9.46zm-109.743-21.68c-10.917-7.937-21.326-16.41-30.728-25.706-3.308-3.3-6.52-6.682-9.586-10.142 10.246-2.195 20.444-4.687 30.575-7.514 2.155-.604 4.312-1.246 6.47-1.898 16.963 6.546 34.973 10.965 53.71 12.91 1.65 1.246 3.308 2.464 4.985 3.67 4.61 3.318 9.345 6.48 14.1 9.596-4.525 2.683-9.097 5.29-13.717 7.8-13.82 7.477-27.996 14.244-42.43 20.417-4.554-2.944-9-6-13.38-9.135zm-10.936 18.91c-11.434 4.294-22.993 8.243-34.648 11.79-11.07 3.363-22.255 6.354-33.488 8.72l-2.54-1.877-1.946-1.438-1.87-1.514-3.708-3.058c-1.198-1.054-2.348-2.157-3.518-3.24-2.415-2.09-4.457-4.524-6.66-6.786-1.065-1.17-1.995-2.444-3-3.66-.97-1.237-2.052-2.397-2.886-3.74-1.735-2.615-3.633-5.136-5.1-7.916l-2.347-4.092-1.995-4.275c-1.438-2.8-2.444-5.81-3.546-8.77l-.826-2.215c-.268-.748-.44-1.524-.67-2.28l-1.294-4.583-.652-2.28c-.173-.777-.316-1.563-.48-2.34l-.958-4.686c-.105-.44-.192-.892-.278-1.333l4.42.374c3.382.268 6.765.67 10.15.69l10.14.297 10.102-.2c1.687-.05 3.373-.04 5.05-.126l5.033-.325 10.054-.652.164-.01.26-.037c7.388-1.198 14.76-2.54 22.1-4.035.413.508.816 1.006 1.218 1.505l3.336 3.795c2.185 2.56 4.57 4.955 6.9 7.41 2.35 2.433 4.822 4.753 7.294 7.092 2.55 2.242 5.023 4.6 7.66 6.766l3.92 3.297c1.312 1.093 2.663 2.138 4.005 3.21 2.655 2.167 5.425 4.19 8.166 6.26 3.345 2.483 6.757 4.888 10.217 7.237-5.894 2.434-11.817 4.773-17.78 7.025zM93.234 491.8c-.086-.672-.173-1.343-.268-2.014-.202-1.59-.46-3.163-.614-4.764l-.373-4.81c-.23-3.212-.594-6.404-.584-9.643l-.22-9.69.258-9.73c.06-1.63.06-3.25.154-4.87l.355-4.868.68-9.536c.987-5.588 1.984-11.176 3.038-16.745.958.643 1.907 1.276 2.923 1.832 2.905 1.63 5.714 3.364 8.733 4.735 1.495.72 2.952 1.476 4.466 2.137 1.523.623 3.047 1.236 4.57 1.85.768.297 1.515.623 2.292.9l2.338.748c1.563.49 3.125.978 4.678 1.467 1.59.363 3.182.718 4.763 1.082l2.378.527c.796.162 1.64.23 2.454.354.403.048.805.105 1.208.153 2.597 2.77 5.262 5.463 8.012 8.09.077.65.154 1.313.288 1.955l.527 2.367c.364 1.58.72 3.172 1.083 4.763.49 1.543.978 3.096 1.476 4.658l.738 2.34c.278.766.604 1.523.91 2.28.614 1.525 1.228 3.05 1.85 4.573.662 1.504 1.43 2.96 2.138 4.447 1.37 3.01 3.115 5.818 4.754 8.712.786 1.467 1.773 2.8 2.655 4.208.93 1.38 1.793 2.818 2.78 4.16 1.218 1.63 2.397 3.306 3.614 4.945-6.23 1.198-12.47 2.32-18.73 3.384l-9.86.68-4.947.335c-1.648.096-3.307.096-4.955.143l-9.9.24-9.912-.26c-3.297 0-6.584-.373-9.872-.622l-4.936-.402c-.316-.03-.623-.077-.94-.115zM70.786 388.42c-9.317-9.385-17.81-19.784-25.754-30.672-1.898-2.636-3.757-5.3-5.588-7.994 6.642-14.942 13.917-29.597 21.95-43.84 2.95-5.214 6.018-10.37 9.19-15.45 3.087 4.888 6.278 9.7 9.604 14.425 2.07 24.765 8.454 48.315 18.403 69.91-2.482 9.037-4.686 18.143-6.67 27.296-.297 1.39-.575 2.77-.863 4.16-7.12-5.368-13.86-11.406-20.27-17.837zm15.66 42.66l-.01.03v.018l-.67 9.91-.325 4.946c-.095 1.658-.095 3.316-.143 4.965l-.23 9.93.278 9.928c0 3.317.393 6.614.642 9.92l.412 4.946c.172 1.65.46 3.288.68 4.927.02.116.038.22.048.336-2.55-.364-5.11-.7-7.61-1.313l-4.84-1.035c-.796-.182-1.61-.336-2.407-.527l-2.376-.7-4.744-1.38c-.786-.248-1.59-.44-2.358-.728l-2.31-.872c-3.076-1.18-6.19-2.262-9.115-3.786l-4.457-2.128-4.255-2.492c-2.904-1.552-5.52-3.565-8.224-5.444-1.38-.89-2.577-2.032-3.86-3.057-1.247-1.074-2.56-2.07-3.76-3.2-2.328-2.32-4.82-4.487-6.938-7.008-1.093-1.227-2.214-2.434-3.287-3.68l-3.077-3.872-1.534-1.937-1.437-2.012-2.75-3.834c2.654-11.866 6.008-23.57 9.737-35.137 3.767-11.646 7.926-23.167 12.44-34.553 2.157-5.425 4.39-10.82 6.71-16.19 1.208 1.708 2.434 3.404 3.67 5.08 2.08 2.743 4.113 5.503 6.28 8.158 1.072 1.332 2.127 2.684 3.21 3.997l3.306 3.91c2.166 2.636 4.534 5.1 6.777 7.65 2.358 2.452 4.658 4.944 7.102 7.293 2.462 2.33 4.858 4.696 7.427 6.89 1.265 1.103 2.53 2.215 3.796 3.327l3.93 3.153c2.5 2.118 5.232 3.95 7.85 5.895-1.285 6.546-2.474 13.102-3.576 19.677zm-52.782-90.163c-3.642-5.73-7.092-11.607-10.35-17.597-3.27-5.99-6.365-12.086-9.145-18.335l-2.004-4.716c-.604-1.592-1.284-3.164-1.83-4.784l-.844-2.406-.73-2.444c-.45-1.63-.804-3.278-.9-4.878.106-.738.096-1.716.317-2.473.2-.805.315-1.59.583-2.415l.73-2.435.842-2.415c.547-1.61 1.218-3.182 1.83-4.773l2.004-4.716c2.77-6.248 5.875-12.344 9.143-18.334 3.26-6 6.71-11.876 10.35-17.607 1.008-1.612 2.033-3.203 3.078-4.794 7.18 16.428 15.106 32.53 23.934 48.134 2.885 5.07 5.866 10.074 8.962 15.02-.077.114-.144.22-.22.335-3.356 5.147-6.586 10.38-9.71 15.67-8.032 13.66-15.355 27.72-22.093 42.058-1.342-2.013-2.664-4.035-3.95-6.096zM32.12 206.34c-4.302-11.416-8.26-22.946-11.807-34.592-3.374-11.05-6.364-22.207-8.74-33.43l1.877-2.53 1.448-1.947 1.524-1.858 3.048-3.71c1.063-1.188 2.166-2.338 3.25-3.507 2.098-2.416 4.532-4.448 6.804-6.643 1.17-1.073 2.444-2.003 3.66-3.01 1.247-.958 2.407-2.04 3.75-2.865 2.625-1.744 5.136-3.633 7.935-5.1l4.09-2.338 4.286-1.994c2.808-1.438 5.818-2.435 8.78-3.537l2.223-.825c.737-.27 1.523-.44 2.28-.67l4.59-1.295 2.292-.642c.767-.182 1.562-.326 2.34-.49l4.695-.958c.335-.076.69-.143 1.035-.21l-.364 4.14c-.26 3.374-.66 6.757-.68 10.13l-.307 10.122.202 10.093c.048 1.677.048 3.364.134 5.042l.326 5.022.642 10.034.01.153.048.27c.824 5.088 1.725 10.168 2.693 15.23-.67.526-1.342 1.053-1.994 1.6-1.302 1.054-2.615 2.108-3.92 3.162-1.264 1.102-2.53 2.213-3.794 3.325-2.578 2.186-4.965 4.563-7.428 6.892-2.444 2.348-4.764 4.81-7.112 7.274-2.243 2.55-4.61 5.014-6.776 7.65l-3.307 3.91c-1.093 1.313-2.138 2.665-3.21 3.997-2.167 2.655-4.2 5.425-6.27 8.157-1.475 1.984-2.913 3.987-4.332 6-1.33-3.336-2.644-6.69-3.92-10.055zm47.857 95.76c-2.923-4.304-5.76-8.675-8.444-13.13 2.636-4.18 5.368-8.292 8.176-12.356-.174 3.537-.27 7.093-.27 10.668 0 4.984.192 9.92.537 14.818zm5.272-132.268c2.52 12.575 5.49 25.092 8.97 37.495.144.508.297 1.016.45 1.524-8.223 20.32-13.34 42.202-14.788 65.07l-.087.116c-3.172 4.39-6.19 8.875-9.163 13.4-2.846-4.765-5.616-9.586-8.27-14.464-8.82-16.246-16.66-33-23.694-50.07 2.08-3.087 4.198-6.135 6.364-9.144 7.945-10.888 16.437-21.288 25.754-30.67 4.648-4.66 9.45-9.116 14.463-13.256zm1.235-61.122c0-3.306.384-6.584.623-9.862l.403-4.927c.03-.23.068-.46.097-.69.776-.095 1.552-.2 2.32-.306 1.6-.2 3.172-.46 4.772-.613l4.82-.373c3.22-.23 6.413-.594 9.662-.585l9.71-.23 9.747.27c1.618.056 3.238.056 4.868.152l4.878.355 9.556.68c4.486.785 8.98 1.58 13.457 2.405-.068.105-.135.2-.202.307-1.63 2.79-3.374 5.492-4.754 8.386-.71 1.438-1.486 2.837-2.147 4.285-.623 1.476-1.246 2.933-1.87 4.4-.306.727-.632 1.456-.91 2.194l-.757 2.252c-.498 1.494-1.006 2.99-1.505 4.485-.374 1.524-.747 3.048-1.112 4.572l-.556 2.28c-.172.758-.24 1.544-.373 2.31l-.432 2.943c-2.386 2.205-4.715 4.467-6.996 6.786-1.524.202-3.048.403-4.582.594-.795.125-1.61.183-2.406.346l-2.367.536c-1.58.355-3.172.72-4.763 1.074-1.552.49-3.115.977-4.677 1.476l-2.34.738c-.765.278-1.523.604-2.29.9-1.514.624-3.047 1.237-4.57 1.85-1.506.662-2.972 1.43-4.458 2.138-3.02 1.37-5.828 3.115-8.732 4.744-1.466.786-2.798 1.774-4.217 2.655-1.38.93-2.818 1.793-4.16 2.77-.153.106-.297.21-.44.317-.74-4.036-1.457-8.07-2.148-12.115l-.68-9.854-.335-4.937c-.096-1.64-.096-3.288-.154-4.937l-.24-9.89.26-9.883zm3.326-29.425l1.036-4.82c.182-.806.336-1.61.537-2.416l.69-2.368 1.39-4.735c.25-.786.44-1.582.728-2.358l.874-2.3c1.178-3.068 2.262-6.183 3.795-9.097l2.127-4.447 2.492-4.256c1.56-2.904 3.574-5.51 5.453-8.204.9-1.38 2.04-2.58 3.067-3.863 1.073-1.246 2.07-2.55 3.2-3.748 2.33-2.32 4.506-4.81 7.026-6.93 1.237-1.092 2.445-2.213 3.69-3.287l3.873-3.067 1.944-1.533 2.013-1.428 3.844-2.75c11.876 2.654 23.608 6 35.195 9.727 11.675 3.757 23.205 7.917 34.61 12.412 4.764 1.887 9.51 3.852 14.224 5.855-1.6 1.112-3.193 2.234-4.774 3.365-10.936 7.984-21.383 16.504-30.815 25.868-7.666 7.65-14.797 15.748-20.874 24.44-5.463-1.043-10.936-2.02-16.418-2.932l-.03-.01h-.018l-9.93-.67-4.955-.326c-1.658-.096-3.317-.096-4.975-.144l-9.95-.22-9.947.268c-3.317 0-6.623.384-9.93.642l-4.955.403c-1.65.18-3.288.47-4.936.69-.21.037-.432.066-.643.095.364-2.636.71-5.272 1.34-7.86zm138.145-40.868c15.65 6.862 30.996 14.405 45.88 22.782 4.976 2.798 9.883 5.712 14.733 8.72-3.96 2.474-7.85 5.052-11.703 7.688-27.268 1.668-53.137 8.54-76.64 19.64-7.446-1.956-14.932-3.74-22.456-5.368-2.52-.537-5.042-1.055-7.572-1.553 5.77-7.668 12.412-14.866 19.523-21.69 9.366-8.97 19.67-17.252 30.5-24.94 2.56-1.792 5.137-3.555 7.735-5.28zm8.99-5.732c5.674-3.556 11.482-6.94 17.396-10.12 5.915-3.193 11.934-6.222 18.04-8.896l4.59-1.937c1.534-.566 3.068-1.227 4.59-1.735l2.283-.786 2.223-.652.556-.163c.173-.038.27-.047.412-.086.26-.056.518-.114.767-.18l.394-.116c.173-.03.412-.038.623-.057l.642-.068.277-.02c.182.03.364.058.547.077l.335.02.507.114c.68.174 1.303.24 2.07.49l2.224.652 2.282.786c1.524.508 3.058 1.17 4.59 1.734l4.592 1.937c6.106 2.673 12.125 5.7 18.038 8.893 5.914 3.182 11.722 6.556 17.397 10.12 2.634 1.62 5.25 3.3 7.83 4.995-15.585 6.872-30.883 14.415-45.72 22.792-4.83 2.732-9.594 5.57-14.31 8.483-5.03-3.26-10.15-6.412-15.325-9.45-14.28-8.368-29.003-15.97-44.023-22.937 2.042-1.322 4.093-2.626 6.173-3.89zm122.09 11.032c10.83 7.696 21.143 15.958 30.478 24.95 5.76 5.52 11.214 11.28 16.14 17.347-11.137 2.31-22.216 4.965-33.21 8.022-21.556-9.21-44.962-14.923-69.49-16.428-3.717-2.607-7.484-5.147-11.29-7.64 4.525-2.683 9.097-5.29 13.716-7.8 15.47-8.368 31.39-15.844 47.606-22.592 2.032 1.36 4.045 2.74 6.048 4.14zm13.1-11.74c11.426-4.295 22.985-8.244 34.65-11.79 11.07-3.365 22.246-6.355 33.49-8.722l2.538 1.878 1.946 1.438 1.86 1.515 3.717 3.058c1.19 1.054 2.34 2.156 3.518 3.23 2.406 2.1 4.447 4.533 6.652 6.795 1.064 1.17 2.003 2.444 3.01 3.662.967 1.236 2.04 2.396 2.875 3.738 1.744 2.616 3.632 5.137 5.1 7.916l2.347 4.093 1.993 4.275c1.437 2.8 2.444 5.808 3.546 8.76l.823 2.224c.27.738.45 1.524.67 2.28l1.295 4.573.652 2.29c.182.776.326 1.562.49 2.338l.957 4.687c.096.403.163.815.25 1.227l-3.547-.307c-3.383-.268-6.767-.66-10.15-.68l-10.14-.307-10.103.2c-1.687.05-3.374.05-5.05.136l-5.033.316-10.054.652-.163.01-.26.047c-6.382 1.034-12.756 2.184-19.1 3.44-5.33-7.045-11.32-13.706-17.685-20.05-9.43-9.356-19.878-17.876-30.814-25.86-.988-.71-1.975-1.4-2.972-2.1 4.218-1.696 8.444-3.364 12.69-4.964zM485.39 87.518c.02 0 .048.008.068.008.095.72.182 1.438.287 2.157.2 1.59.46 3.163.613 4.763l.384 4.812c.22 3.21.585 6.402.585 9.642l.22 9.69-.268 9.728c-.058 1.62-.058 3.25-.154 4.87l-.354 4.868-.682 9.537c-.757 4.284-1.514 8.57-2.3 12.844-1.467-.998-2.943-1.966-4.447-2.896-2.79-1.63-5.5-3.374-8.405-4.744-1.438-.72-2.847-1.486-4.294-2.147-1.466-.623-2.942-1.246-4.398-1.86-.74-.306-1.467-.632-2.205-.92l-2.252-.747c-1.505-.508-3-1.007-4.496-1.505-1.534-.373-3.058-.737-4.582-1.11l-2.28-.557c-.768-.173-1.544-.24-2.31-.364-.327-.05-.653-.097-.98-.145-3.45-3.67-7.034-7.208-10.743-10.62l-.345-2.367c-.125-.767-.2-1.553-.374-2.31l-.546-2.28-1.122-4.573c-.498-1.495-.996-2.99-1.504-4.486l-.748-2.253c-.288-.738-.613-1.467-.92-2.195-.623-1.466-1.237-2.923-1.86-4.4-.67-1.447-1.437-2.846-2.156-4.284-1.38-2.894-3.125-5.607-4.754-8.386-1.006-1.62-2.06-3.2-3.134-4.783 5.348-1.007 10.706-1.956 16.073-2.876l9.863-.67 4.945-.346c1.65-.087 3.307-.087 4.956-.144l9.9-.24 9.91.26c3.297 0 6.585.382 9.872.622l4.936.403zm14.75 190.628c2.723 4.044 5.37 8.137 7.89 12.316-2.665 4.217-5.416 8.377-8.263 12.47.384-5.167.585-10.38.585-15.652 0-3.058-.077-6.106-.21-9.134zm-15.65 93.996c-.27-.958-.556-1.907-.834-2.856 8.453-19.82 13.926-41.205 15.88-63.575.078-.105.155-.21.23-.316 3.174-4.38 6.193-8.876 9.164-13.4 2.857 4.773 5.617 9.585 8.272 14.464 7.112 13.103 13.58 26.55 19.514 40.208-1.87 2.828-3.776 5.607-5.712 8.367-7.706 10.812-15.978 21.106-24.987 30.432-4.716 4.897-9.614 9.575-14.722 13.897-2.023-9.124-4.275-18.2-6.806-27.22zm-4.735 5.75c2.166 8.1 4.11 16.266 5.875 24.46.096.45.182.91.278 1.362-2.923 2.262-5.904 4.41-8.97 6.393-2.666 1.62-5.254 3.353-8.014 4.724-1.36.71-2.703 1.476-4.083 2.147-1.39.624-2.79 1.247-4.18 1.86-.7.307-1.39.633-2.09.92l-2.137.758c-1.428.508-2.846 1.016-4.265 1.524l-1.217.316c11.378-13.486 21.087-28.41 28.803-44.463zm-2.56-186.363c-8.08-15.68-18.086-30.22-29.693-43.312l.336.086c1.447.384 2.894.758 4.342 1.14 1.418.51 2.837 1.017 4.265 1.525l2.137.756c.71.278 1.4.614 2.09.92 1.39.614 2.79 1.237 4.188 1.86 1.38.66 2.713 1.428 4.083 2.147 2.762 1.36 5.35 3.105 8.004 4.725 2.004 1.294 3.96 2.664 5.904 4.083-.68 3.547-1.37 7.084-2.108 10.62-1.102 5.176-2.29 10.323-3.546 15.45zm-96.018-93.526c6.93-1.783 13.888-3.42 20.875-4.926 2.607-.556 5.214-1.083 7.82-1.59 1.506 2.03 2.963 4.1 4.324 6.21 1.62 2.654 3.374 5.233 4.744 7.984.71 1.37 1.476 2.702 2.147 4.083.623 1.39 1.246 2.78 1.86 4.17.306.7.642 1.39.93 2.088l.756 2.138c.51 1.42 1.017 2.838 1.516 4.256.383 1.448.767 2.885 1.15 4.333l.517 1.973c-14.04-12.192-29.712-22.553-46.638-30.72zm-101.51-20.56c3.22-2.127 6.478-4.197 9.794-6.18.22-.135.44-.26.66-.384 3.394 2.127 6.74 4.322 10.064 6.565-3.412-.163-6.833-.26-10.284-.26-3.43 0-6.843.097-10.236.26zm-128.378 51.892c.03-.143.048-.287.086-.43l.566-2.167 1.15-4.333c.507-1.42 1.015-2.837 1.523-4.256l.757-2.136c.288-.7.614-1.39.92-2.09.623-1.39 1.237-2.78 1.86-4.18.67-1.37 1.437-2.71 2.156-4.072 1.37-2.75 3.115-5.34 4.735-7.994.384-.603.806-1.188 1.2-1.782 3.42.65 6.833 1.313 10.236 2.022 5.146 1.093 10.265 2.272 15.373 3.518-14.617 7.715-28.227 17.1-40.563 27.9zm-52.763 70.582c-1.984-7.553-3.796-15.163-5.444-22.802-.815-3.872-1.582-7.745-2.33-11.626 3.326-2.512 6.738-4.898 10.246-7.074 2.77-1.62 5.454-3.354 8.33-4.725 1.418-.708 2.817-1.475 4.246-2.136 1.456-.614 2.913-1.227 4.36-1.85.73-.297 1.438-.623 2.176-.9l2.224-.75c1.485-.497 2.97-.996 4.447-1.494 1.514-.364 3.018-.738 4.523-1.102l2.252-.556c.68-.144 1.362-.22 2.042-.326-15.115 16.275-27.69 34.926-37.073 55.342zm33.71 226.36l-.93-.22c-1.506-.374-3.01-.738-4.525-1.112-1.477-.49-2.963-.987-4.448-1.486l-2.224-.747c-.738-.288-1.447-.604-2.175-.91-1.448-.614-2.905-1.228-4.36-1.85-1.43-.662-2.83-1.43-4.247-2.138-2.876-1.36-5.56-3.096-8.33-4.716-1.485-.92-2.952-1.89-4.408-2.876.45-2.28.91-4.562 1.38-6.834 1.447-6.767 3.01-13.505 4.715-20.195 8.05 15.594 18.01 30.058 29.55 43.083zm73.034 53.348c-9.182 2.51-18.44 4.735-27.757 6.73-1.62.344-3.25.67-4.878 1.005-3.834-4.705-7.4-9.574-10.562-14.644-1.62-2.76-3.364-5.444-4.725-8.32-.72-1.418-1.476-2.808-2.147-4.236-.614-1.457-1.227-2.904-1.85-4.352-.297-.728-.623-1.437-.91-2.166l-.748-2.233c-.5-1.477-.997-2.963-1.486-4.43-.288-1.16-.575-2.31-.853-3.46 16.506 14.81 35.36 27.05 55.918 36.106zm101.616 17.07c-.747.518-1.476 1.064-2.224 1.572-5.05 3.45-10.17 6.796-15.412 9.94-.22.134-.44.258-.65.383-5.033-3.152-9.998-6.41-14.858-9.823-1.073-.748-2.137-1.515-3.2-2.28 6.383.574 12.833.89 19.36.89 5.713 0 11.377-.24 16.984-.68zm122.885-52.58c-.24.958-.47 1.906-.7 2.865-.5 1.467-.998 2.953-1.496 4.43l-.748 2.223c-.287.738-.613 1.447-.91 2.175-.614 1.448-1.237 2.895-1.85 4.352-.67 1.428-1.428 2.818-2.147 4.236-1.362 2.876-3.106 5.56-4.726 8.32-2.186 3.498-4.563 6.9-7.083 10.217-2.348-.46-4.686-.93-7.025-1.42-7.265-1.532-14.492-3.22-21.67-5.06 17.625-8.54 33.88-19.456 48.354-32.338zM289.9 491.117c-112.59 0-204.19-91.437-204.19-203.836 0-112.39 91.6-203.837 204.19-203.837s204.19 91.447 204.19 203.837c0 112.4-91.6 203.836-204.19 203.836zm198.48-321.44c6.17 4.984 12.037 10.505 17.663 16.342 8.98 9.345 17.272 19.63 24.978 30.44 3.097 4.4 6.116 8.876 9 13.448-6.622 14.856-13.86 29.444-21.852 43.61-2.952 5.214-6.01 10.37-9.192 15.45-2.885-4.562-5.866-9.057-8.96-13.485-1.497-26.77-8.024-52.217-18.672-75.412 1.993-7.523 3.795-15.095 5.444-22.705.546-2.56 1.073-5.118 1.59-7.687zm77.366 4.17c3.987-11.675 7.61-23.492 10.524-35.58l.403-1.676-1.007-1.466-2.885-4.18-1.446-2.09-1.543-2.03-3.114-4.055c-1.093-1.312-2.243-2.597-3.355-3.89-2.175-2.665-4.743-4.984-7.14-7.457-1.236-1.208-2.597-2.28-3.89-3.432-1.333-1.1-2.58-2.318-4.017-3.296-2.808-2.032-5.55-4.188-8.597-5.865l-4.467-2.666-4.668-2.3c-3.077-1.63-6.326-2.81-9.537-4.074l-2.415-.94c-.806-.306-1.64-.517-2.464-.785l-4.936-1.505-2.473-.747c-.833-.21-1.667-.384-2.51-.576l-5.014-1.13c-3.335-.854-6.718-1.227-10.083-1.783-.162-.03-.325-.058-.48-.077-.18-1.064-.392-2.128-.65-3.182l-1.055-4.87c-.172-.804-.335-1.62-.537-2.424l-.7-2.386-1.408-4.773c-.25-.794-.44-1.6-.73-2.376l-.89-2.33c-1.198-3.095-2.3-6.238-3.843-9.18l-2.167-4.496-2.52-4.294c-1.59-2.933-3.623-5.57-5.53-8.29-.91-1.4-2.06-2.608-3.106-3.902-1.083-1.255-2.1-2.578-3.24-3.786-2.358-2.338-4.552-4.85-7.102-6.987-1.246-1.103-2.463-2.224-3.728-3.307l-3.9-3.087-1.966-1.543-2.023-1.437-4.054-2.885-.18-.134-.22.058c-11.992 2.684-23.81 6.067-35.493 9.843-11.684 3.786-23.233 7.965-34.65 12.49-4.82 1.916-9.622 3.91-14.395 5.942-3.613-2.493-7.284-4.938-11.022-7.276-5.76-3.662-11.665-7.122-17.684-10.4-6.02-3.287-12.153-6.402-18.45-9.19l-4.754-2.033c-1.61-.613-3.192-1.293-4.83-1.85l-2.455-.862-2.492-.738c-1.677-.47-3.393-.853-5.223-.958-.96.115-1.725.096-2.636.335-.863.202-1.773.355-2.588.623l-2.492.748-2.454.853c-1.64.557-3.22 1.237-4.83 1.85l-4.754 2.033c-6.297 2.79-12.422 5.914-18.44 9.19-6.03 3.28-11.934 6.74-17.685 10.4-3.143 1.956-6.22 3.988-9.268 6.068-5.262-2.367-10.562-4.667-15.89-6.89-11.388-4.726-22.918-9.115-34.602-13.112-11.693-3.987-23.53-7.59-35.636-10.505l-1.687-.403-1.466 1.007-4.188 2.875-2.09 1.447-2.04 1.543-4.056 3.115c-1.322 1.092-2.607 2.233-3.9 3.345-2.665 2.166-4.994 4.734-7.467 7.13-1.208 1.227-2.29 2.588-3.44 3.882-1.103 1.333-2.32 2.57-3.298 4.007-2.042 2.808-4.198 5.54-5.875 8.578l-2.675 4.466-2.3 4.66c-1.64 3.066-2.818 6.305-4.083 9.516l-.95 2.415c-.306.806-.516 1.64-.775 2.454l-1.505 4.937-.757 2.464c-.21.834-.384 1.668-.575 2.502l-1.13 5.003c-.845 3.288-1.228 6.623-1.774 9.94-1.016.172-2.032.373-3.04.623l-4.868 1.044c-.805.182-1.63.345-2.434.537l-2.387.7-4.783 1.408c-.795.25-1.6.44-2.386.728l-2.33.89c-3.105 1.2-6.248 2.292-9.2 3.835L46.402 100l-4.313 2.52c-2.934 1.592-5.57 3.624-8.3 5.52-1.4.912-2.608 2.062-3.902 3.107-1.265 1.083-2.588 2.09-3.795 3.23-2.35 2.348-4.86 4.543-6.997 7.092-1.103 1.237-2.233 2.464-3.317 3.72l-3.096 3.9-1.534 1.955-1.447 2.023-2.895 4.045-.124.182.048.22c2.693 11.97 6.086 23.77 9.872 35.435 3.786 11.664 7.965 23.194 12.498 34.58 1.582 3.96 3.21 7.9 4.88 11.82-5.743 8.328-11.11 16.983-16.008 25.944-3.354 6.097-6.556 12.308-9.44 18.74l-2.11 4.878c-.64 1.677-1.34 3.297-1.945 5.022l-.91 2.58-.816 2.71-.2.682c-.068.24-.136.565-.203.843l-.363 1.735-.172.872-.067.66-.068.643-.028.317c-.02.316 0-.25-.058.786.048.632.096 1.274.163 1.917.03.306.067.642.106.94l.162.747c.23.987.432 2.07.72 2.932l.814 2.713.91 2.578c.603 1.725 1.303 3.345 1.945 5.023l2.11 4.878c2.884 6.43 6.085 12.642 9.44 18.748 5.118 9.345 10.725 18.364 16.744 27.038-2.675 5.885-5.272 11.808-7.764 17.78-4.735 11.357-9.125 22.878-13.13 34.542-3.99 11.665-7.612 23.483-10.525 35.57l-.402 1.676 1.006 1.467 2.885 4.18 1.447 2.098 1.543 2.022 3.115 4.064c1.093 1.314 2.243 2.59 3.364 3.892 2.165 2.655 4.734 4.984 7.13 7.457 1.236 1.197 2.598 2.28 3.89 3.42 1.334 1.113 2.58 2.32 4.017 3.298 2.81 2.032 5.55 4.19 8.598 5.866l4.466 2.674 4.67 2.29c3.076 1.64 6.325 2.81 9.536 4.074l2.415.95c.806.306 1.64.517 2.464.775l4.936 1.505 2.473.748c.834.21 1.668.383 2.51.575l5.014 1.13c3.2.825 6.45 1.21 9.69 1.726.182 1.122.393 2.244.67 3.356l1.055 4.86c.183.814.336 1.63.537 2.434l.7 2.386 1.417 4.773c.24.795.44 1.6.73 2.376l.89 2.33c1.19 3.095 2.29 6.24 3.834 9.18l2.167 4.497 2.52 4.294c1.592 2.933 3.634 5.568 5.53 8.29.912 1.4 2.062 2.607 3.107 3.9 1.092 1.257 2.1 2.58 3.24 3.787 2.357 2.34 4.552 4.85 7.102 6.987 1.246 1.104 2.463 2.225 3.728 3.308l3.91 3.086 1.956 1.543 2.022 1.438 4.054 2.885.183.125.22-.048c12-2.684 23.817-6.077 35.5-9.844 11.684-3.786 23.234-7.964 34.64-12.488 6.526-2.588 12.996-5.31 19.427-8.12 7.083 4.688 14.377 9.116 21.9 13.21 6.107 3.354 12.327 6.536 18.768 9.42l4.888 2.1c1.678.652 3.297 1.35 5.032 1.945l2.588.91 2.712.816.68.21c.24.068.566.125.844.192l1.744.364.872.173.66.067 1.286.134c1.083.02.575-.02.94-.02l.478-.037.96-.087c.315-.03.65-.068.938-.106l.757-.163c.987-.23 2.07-.422 2.933-.71l2.722-.823 2.578-.91c1.735-.594 3.355-1.294 5.032-1.946l4.888-2.1c6.45-2.884 12.67-6.066 18.777-9.42 6.757-3.69 13.342-7.64 19.744-11.8 6.68 3.068 13.408 6.03 20.204 8.857 11.377 4.726 22.916 9.116 34.6 13.103 11.693 3.988 23.52 7.6 35.636 10.515l1.677.402 1.467-1.006 4.188-2.885 2.1-1.44 2.03-1.542 4.065-3.115c1.313-1.093 2.597-2.233 3.9-3.345 2.656-2.166 4.994-4.735 7.467-7.13 1.208-1.237 2.28-2.59 3.432-3.883 1.11-1.332 2.33-2.578 3.297-4.006 2.04-2.81 4.198-5.54 5.885-8.58l2.674-4.466 2.29-4.658c1.64-3.067 2.818-6.307 4.084-9.517l.948-2.417c.307-.805.518-1.64.786-2.453l1.505-4.937.748-2.463c.21-.834.383-1.668.575-2.5l1.14-5.014c.834-3.24 1.208-6.537 1.745-9.815 1.313-.21 2.616-.45 3.91-.766l4.87-1.054c.804-.182 1.63-.335 2.434-.537l2.386-.7 4.783-1.408c.796-.25 1.61-.44 2.387-.73l2.33-.89c3.104-1.19 6.248-2.29 9.2-3.834l4.495-2.155 4.313-2.52c2.934-1.583 5.57-3.624 8.302-5.522 1.4-.91 2.607-2.06 3.9-3.096 1.266-1.083 2.588-2.1 3.796-3.24 2.348-2.348 4.86-4.543 6.997-7.082 1.102-1.246 2.233-2.464 3.316-3.73l3.097-3.89 1.543-1.956 1.438-2.023 2.894-4.054.125-.173-.048-.22c-2.694-11.98-6.087-23.78-9.873-35.444-3.786-11.655-7.965-23.195-12.498-34.582-2.896-7.246-5.934-14.434-9.107-21.575 1.975-2.886 3.9-5.81 5.76-8.79 3.662-5.74 7.14-11.635 10.42-17.645 3.287-6.01 6.41-12.134 9.21-18.412l2.032-4.754c.613-1.61 1.294-3.183 1.85-4.822l.862-2.444.748-2.492c.46-1.697.853-3.336.95-5.272-.097-1.668-.48-3.48-.96-5.156l-.738-2.492-.862-2.444c-.556-1.64-1.237-3.22-1.85-4.83l-2.032-4.745c-2.8-6.278-5.923-12.403-9.21-18.413-3.29-6.01-6.758-11.904-10.42-17.654-.766-1.218-1.552-2.435-2.338-3.643 2.703-5.933 5.32-11.913 7.84-17.932 4.735-11.367 9.125-22.878 13.13-34.543z" stroke="#131313" stroke-width="2"/><path d="M393.473 241.767c.038-.057.03-.038 0 0" fill="#fff"/><path d="M393.473 241.767c.038-.057.028-.038 0 0z" stroke="#131313" stroke-width="2"/><path d="M404.555 216.004c-1.648-.623-2.683-1.61-2.53-3.49 1.42.097 2.837.192 4.304.298-.107 1.505-.998 2.214-1.775 3.192m9.45-2.234c-2.098-.766-4.303-1.246-6.536-1.86-.02-1.56.277-3.325-2.042-3.92-1.16 1.4-3.125 2.263-3.49 4.43-3.335-.174-4.36 1.57-4.33 4.724.027 2.252.67 4.217 1.647 6.106 1.054 2.06 2.042 4.092 1.524 6.517 2.54-.527 1.81-3.077 3.172-4.045 2.655-1.888 4.706-4.792 8.74-4.227 2.31.317 4.803-.718 5.224-3.354.422-2.587-1.888-3.632-3.91-4.37" fill="#fff"/><path d="M404.555 216.004c-1.648-.623-2.683-1.61-2.53-3.49 1.42.097 2.837.192 4.304.298-.107 1.505-.998 2.214-1.775 3.192zm9.45-2.234c-2.098-.766-4.303-1.246-6.536-1.86-.02-1.56.277-3.325-2.042-3.92-1.16 1.4-3.125 2.263-3.49 4.43-3.335-.174-4.36 1.57-4.33 4.724.027 2.253.67 4.217 1.647 6.106 1.054 2.06 2.042 4.092 1.524 6.517 2.54-.527 1.81-3.077 3.172-4.045 2.655-1.888 4.706-4.792 8.74-4.226 2.31.316 4.803-.72 5.224-3.355.422-2.587-1.888-3.632-3.91-4.37z" stroke="#131313" stroke-width="2"/><path d="M417.64 249.32c-1.954 1.314-2.3 5.224-6.17 4.017-.758.68-.72 2.233-2.187 2.703-1.332-1.122-2.022-2.905-3.594-3.844-.566-.335-1.103-.89-1.783-.43-.873.583-.422 1.39-.048 2.002 1.455 2.367 2.424 5.233 5.72 5.875.317.058.528.67.815 1.055 1.524-1.467 1.783-3.24 2.042-5.004 5.156 2.445 5.616 6.844 5.1 11.732-.682 6.566-4.966 15.038-9.154 18-5.3-7.4-9.23-15.882-17.3-21.02-1.275.95-.806 2.004-.28 3.05 1.17 2.31 2.877 4.39 4.832 5.817 1.687 1.217 2.598 2.655 3.336 4.303 1.774 3.978 3.92 7.476 8.004 9.594 2.108 1.093 2.54 3.882 4.447 5.588 1.88-1.016 2.205-3.19 3.49-4.59.182-.28.354-.557.565-.883.7.623.2.892-.182 1.19-3.345 13.34-6.038 26.798-7.495 40.494-.374 3.545-1.035 7.005-.69 10.638.316 3.268-1.773 5.914-3.594 8.406-3.125 4.294-5.588 8.875-7.63 13.782-5.27 12.67-15.786 21.94-29.166 25.88 1.61-3.126-.575-5.867-.498-8.282.182-5.52-1.898-10.534-2.08-15.863-.077-2.088 1.073-3.775 1.917-5.54 3.335-6.967 2.377-12.286-3.25-17.54-.41-.392-.833-.775-1.284-1.12-2.07-1.59-2.77-3.518-1.763-6.057.556-1.39.997-2.857 1.198-4.333.364-2.616-.853-3.517-3.422-2.818-1.17.317-2.377.585-3.585.738-.564.067-1.197.154-1.666-.642-1.227-2.1-3.978-2.156-6.317-1.428-4.81 1.524-9.047 4.687-14.28 5.003-2.387.144-4.6 1.007-6.815 1.802-1.582.566-2.818.345-4.227-.584-5.195-3.44-10.198-7.025-14.51-11.645-1.698-1.83-3.097-3.584-4.104-5.827 1.803-1.074 2.187-2.732 1.91-4.65-.23-1.58-.202-3.258-.72-4.743-1.677-4.85-.067-8.885 2.703-12.767 2.415-3.383 4.926-6.67 8.07-9.44.68-.595 1.687-1.15 1.275-2.292-1.237-3.364 1.562-4.84 3.077-6.987 2.194-3.097 4.83-5.148 8.875-5.004.843.03 1.754-.642 2.568-1.12 6.47-3.806 13.984-4.22 21.068-6.672.508 1.81 1.734 3.144 1.236 4.984-.24.862.364 1.303 1.016 1.4 4.303.603 8.224 2.683 12.565 3.076.834.076 1.716.096 2.52-.096 2.11-.498 2.167-1.236.203-3.9 2.03-1.592 4.34-1.918 6.785-1.64 4.516.508 8.1-1.965 11.915-3.67.422-.183.613-1.122.72-1.745.65-3.853.143-7.467-2.36-10.84-1.408.996-2.826 1.782-3.986 2.865-2.014 1.87-4.15 1.735-6.48.844-.853-.317-1.428-.662-1.61-1.678-.403-2.357-2.8-4.083-5.406-4.063-1.265 3.767-1.026 4.563 1.687 5.598.183 3.268.164 3.307-2.482 3.69-.364-.26-.412-.585-.172-.958.124-.202.26-.393.297-.46-5.483-6.04-11.8-10.39-20.214-11.924 2.25 6.384 8.692 5.77 12.497 8.713-.105 1.293-1.217.46-1.58 1.168.104 1.534 2.194 3 .257 4.994-2.472-4.486-7.476-5.627-10.964-8.77-1.86-1.678-4.198-3.527-6.432-.048-.546.853-1.85.805-2.885.95-1.62.22-3.345.382-2.79 2.807.078.327.06.768-.392.95-3.286 1.313-3.43 4.447-4.197 7.217-1.15 4.18-2.856 5.57-7.246 5.703-1.41.038-2.837-.077-4.236-.25-1.34-.153-2.616.116-4.044.374-2.08-3.776-.43-8.252-2.406-12.134 2.464-1.207 4.86-2.127 7.6-1.974 1.314.086 2.656.086 3.96-.086 2.616-.336 3.297-1.62 2.003-3.882-1.285-2.253-2.962-4.112-5.617-4.86-.72-.2-1.907-.086-1.83-1.34.067-.99 1.025-.96 1.715-1.142 1.448-.383 2.963-.67 1.736-2.712 2.137-.844 4.993-.345 4.716-3.69-.01-.21.69-.614 1.102-.71 1.562-.354 2.214-1.064 2.338-2.856.135-2.06 2.176-1.955 3.825-2.042 2.473-3.546-1.697-4.964-2.435-7.706.757-.517.93-2.1 2.358-1.754 1.476.365.978 1.774 1.093 2.857.278 2.78 2.04 3.623 4.63 2.453 2.48-1.13 5.06-2.05 7.647-3.086 1.045-2.3-.01-4.342-1.11-6.077.325-1.39 1.523-.278 1.954-1.39.086-1.638-1.735-2.54-2.444-4.12.872-1.764 3.47-1.937 3.862-4.065-1.86-.93-3.46-1.294-4.495 1.266-.517 1.265-3.91.412-5.156-1.294-1.293-1.774-2.338-3.767-2.472-5.933-.163-2.57-1.582-2.837-3.757-2.722.538 2.894 1.276 5.578 1.582 8.367.202 1.917 2.31 2.837 3.614 4.15 1.4 1.4 2.3 2.626-.154 3.94.9 1.35 1.687 2.51 2.52 3.757-.967 1.015-1.39 2.558-3.085 3.17-1.84-1.954-3.69-3.93-5.617-5.98l-3.172 2.99c-3.757-1.446-5.157-4.677-6.537-8.07 2.387-2.798 3.633-6.25 4.18-9.833.345-2.224-1.035-4.36-1.812-6.44-.776-2.11-.19-3.93 1.37-4.477 1.89-.662 1.592-1.946 1.89-3.46 5.443.9 10.446 2.722 15.47 4.505.583.21.948.613.823 1.284-.114.67-.632.92-1.226.93-1.322.037-2.636.018-4.667.018 3.268 2.53 6.268 4.016 10.044 4.533-.104-3.23-2.29-5.25-3.17-7.79-1.353-.93-2.695-1.87-4.046-2.81.144-.23.288-.45.44-.67 1.736.326 2.934 1.61 4.103 2.933.412.182.834.354 1.313.556.45-1.305-.2-2.283-.517-3.327-.24-.825-1.036-1.304-.154-2.627 1.082-1.62-1.563-2.05-2.368-3.162.66-1.697 2.367-.892 3.767-1.802-3.787-2.09-7.794-3.374-11.56-6.393h3.182c.546.114 1.11.46 1.792-.193-.537-.134-.96-.23-1.37-.335-.815-1.112-1.688-1.946-3.03-2.675-5.616-3.067-11.78-4.792-17.482-7.447.997-1.82 2.923-1.41 4.352-1.706.335-.89-.422-.92-.786-1.764 11.175 2.53 21.46 6.547 31.18 11.943 37.82 21 61.637 52.62 71.903 94.437-2.53-4.744-3.44-10.57-9.02-13.39m-3.267 90.614c-1.764 2.693-2.28 5.923-3.2 8.98-1.15 3.815-2.752 7.985-6.23 9.978.526-9.44 7.417-15.853 10.638-24.402.288 2.32-.162 3.853-1.207 5.444m-103.36-113.56c.613.28 1.542.7 2.463 1.122-1.16 2.694.43 7.41-5.195 6.806 1.266-2.636-1.772-6.183 2.732-7.927m1.332-8.11c3.748.23 4.38.797 4.37 4.43 0 1.217.605 1.686 1.477 2.1 1.918.89 3.93 1.542 4.678 3.938.346 1.112 1.582 1.15 2.598.757.565 1.4-1.035 2.51.2 3.872-3.17.91-6.267 1.687-8.97 3.71-.7-2.052 1.054-2.397 1.735-3.355.317-.173.873-.106.74-.9l-1.19.267c-.537.087-1.073.182-1.993.336.728-1.39 1.025-2.598-.298-3.22.69-1.37 1.993-.787 2.664-1.6-.604-1.928-1.658-2.838-3.93-1.88.298-1.86-1.102-2.856-1.87-4.14-.89-1.515-.478-2.866-.21-4.314m-24.21-25.87c-.91.94-1.83-.085-2.588.107-1.352 1.965.364 2.473 1.61 3.182-1.495 1.783-3.288 2.578-5.07 3.393-2.74 1.256-5.51 2.444-8.205 3.786-2.73 1.35-4.887 3.182-6.372 6.086-1.246 2.435-3.48 4.352-5.34 6.566-2.635-1.65-4.283-3.91-5.76-6.317-.268-.442-.565-1.275-.345-1.563 1.87-2.53.988-5.8 2.57-8.588.87-1.525 2.27-2.416 3-3.883.095-1.217-1.314-1.265-1.65-2.214 1.457-.747 3.758-.325 4.247-2.444.25-1.084-1.122-1.17-1.956-1.4 4.103-7.86 4.083-7.974-1.524-10.294.163-.43.27-1.188.518-1.246 2.262-.47 3.163-3.115 5.75-3.25 1.88-.095 3.595-.852 4.755-2.903.795-1.41 3.326-1.515 4.648-1.13 2.407.69 4.046-.222 5.934-1.18 1.064-.547 2.29-.786 3.566-1.198.402.68.766 1.312 1.11 1.906-.43.594-1.35.412-1.58 1.342 1.35.278 2.684.556 3.978.824-1.093 4.486-.777 8.952.498 13.39-1.974.393-2.53 3.125-5.11 2.732 1.2 1.706 3.394 2.185 3.318 4.293M264.2 361.067c-.287.24-.584.48-.91.672-3.843 2.29-6.2 4.82-5.597 10.15.66 5.865-3.72 9.814-9.7 10.552-2.683.335-3.89.795-6.92 2.674 1.562 3.584 1.18 4.58-2.022 5.97-.402.183-.94.51-1.025.854-.968 3.997-3.805 3.01-6.48 2.492-.45-.086-.91-.144-1.532-.24.373 1.985 2.166 2.838 3.047 4.515-2.27 1.438-4.466.412-6.7.182-.584.87-.622 2.26-2.463 2.31 1.084.68 1.85 1.16 2.895 1.8-1.86.557.853 2.76-1.735 3.01 1.352 1.687 4.064 2.166 3 4.802 1.85 1.764 4.668 1.888 6.805 4.448-4.13-.844-7.112-2.53-9.776-4.592-8.176-6.325-13.63-14.415-17.252-24.24-3.23-8.76-6.758-17.51-12.135-25.408-5.07-7.457-8.914-15.71-12.365-24.057-1.41-3.384-.92-7.17-1.13-10.783-.106-1.754 1.494-2.454 2.127-3.757 1.534-3.192 1.62-6.508.968-10.18 4.514 1.036 4.84-6.296 9.872-4.13-.603 1.41-.21 3.134-.048 5.137 3.25-1.073 6.345-.393 9.48.077 3.153.46 6.076 1.255 8.242 3.997.163.92-1.274.805-1.476 1.734.23.125.45.307.69.355 2.35.49 4.678.45 5.262 3.95.26 1.59 3.27 2.414 5.28 2.568 4.39.336 6.768 3.394 8.886 6.48 1.227 1.792 1.42 4.303 2.06 6.44-.718 1.036-1.906.02-2.615.777.354 2.837 3.402 4.658 6.02 3.115 1.753-1.025 3.056-.72 4.312.173 5.09 3.642 11.05 5.5 16.543 8.32 2.358 1.207 4.658 2.51 6.575 4.36 2.032 1.975 1.946 3.66-.182 5.473m-84.88-52.428c-3.02-3.297-4.438-7.35-5.052-11.712-.115-.815.192-1.726-.72-2.282-2.76-1.686-3.91-4.485-5.078-7.284-.624-1.495-1.486-2.77-2.694-3.9-3.067-2.867-4.054-6.672-4.553-10.678-.632-5.1.106-10.15.67-15.23-1.32-.26-.66 1.476-1.81 1.39-.383-4.093.987-7.802 2.77-11.464-.345 2.617-.69 5.224-1.045 7.83 1.927-4.024 2.962-8.26 3.25-12.612.143-2.272.306-4.448 1.054-6.633 3.22-9.364 7.792-17.98 14.358-25.418 5.99-6.767 10.878-14.55 17.894-20.358 5.712-4.726 10.17-10.707 16.112-15.202 7.457-5.627 15.68-9.69 24.46-12.738.594-.202 1.246-.374 1.993 0-4.256 2.75-8.464 5.453-12.777 8.233.863 1.16 1.917 1.39 3.642 1.265-3.738 2.252-4.284 6.71-7.965 8.33.518 1.37.518 1.37 4.218 1.513-.44 1.2-1.668 2.053-1.476 3.615.785.096 1.6.192 2.424.287.03 1.122-1.322 1.37-1.437 2.818 2.587-.48 4.168-2.942 6.66-3.124.048-1.304.518-2.253 1.82-2.857 2.158-1.007 3.998-2.655 6.672-2.828-2.684 2.05-5.367 4.112-8.05 6.163-.902 1.783-1.813 3.575-2.915 5.75 3.834.192 5.05-3.785 8.138-4.322-2.377 6.278-7.285 7.63-12.997 6.115.057 1.65.345 3.03-2.377 2.07-3.795-1.322-14.03 7.13-13.408 11.023.364 2.263 1.102 4.553 1.783 6.767 1.198 3.844.767 7.218-1.83 10.438 1.446.556 2.3-.278 3.114-.93 3.105-2.51 5.95-5.32 7.782-8.875 1.667-3.23 3.95-5.952 6.182-8.732 1.083-1.35 4.284-1.945 5.482-.853 1.246 1.13.786 2.617.163 3.93-.91 1.917-.806 3.767.085 5.875 1.61-1.188 3.096-2.29 4.726-3.498-.296 5.176-3.594 10.41 1.726 14.827-1.006 1.274-2.933.69-4.265 1.763 1.697 1.246 3.892.508 6.125 1.86-3.326 1.897-6.44 3.412-10.054 3.19-7.417-.43-8.798-.104-14.778 4.61 1.686-.152 3.067-1.11 4.514-1.916 1.534-.843 2.962-2.022 5.166-1.83-.144 2.003-1.984 2.492-2.818 3.69 1.208 1.677.153 3.575.575 5.52.46.91 2.06-.19 2.587 1.438-2.73-.124-4.735 2.694-8.05 2.12 1.005-2.216 2.826-2.053 3.977-2.963-3.135-1.65-9.22.834-10.59 4.284-4.583.03-7.487 2.79-10.17 6.096-.92.134-.787-1.073-1.362-1.39-1.58 2.08-.402 5.195-2.722 6.815-1.58 1.102-3.335 2.013-5.108 2.79-1.937.833-2.483 2.3-2.617 4.207-.24 3.402-.968 6.67-3.2 10.284-.27-4.802-1.86-8.55-3.068-12.402-.384-1.208-1.122-1.83-2.262-2.253-1.41-.517-1.783.22-1.88 1.486-1.628-1.726-4.13-2.08-4.973-4.017-4.697.412-5.502 3.757-6.384 7.207-1.025 3.988-3.038 7.793-1.63 12.087.202.623.336 1.284.633 1.86 1.343 2.654 3.07 2.894 5.158.766 1.85-1.888 1.85-1.888 4.294-.853-.2 2.147-1.083 4.102-2.204 5.904-1.457 2.358-1.266 4.658 1.063 6.067 2.263 1.372 3.04 2.915 2.982 5.713-.096 4.448 1.706 8.56 4.313 12.413-1.85 1.58-3.134-.03-4.246-1.256m254.194-42.508c-5.358-34.754-21.135-63.93-47.406-87.268-23.866-21.21-51.9-33.077-83.73-35.942-.462-.04-.97.038-1.142-.566h-23.243c-2.875 1.246-5.99 1.083-9 1.514-56.3 8.08-103.274 49.064-118.658 103.524-2.472 8.732-4.092 17.588-5.012 26.598-.058.517.143 1.17-.604 1.408v23.77c1.245 2.866 1.053 5.99 1.523 8.98 6.345 40.458 26.1 72.787 59.166 96.892 21.19 15.46 45.075 24.04 71.165 26.578.527.048 1.178-.153 1.418.595h23.243c1.725-1.16 3.767-.757 5.645-1.007 46.822-6.24 82.62-29.578 107.512-69.488 11.598-18.585 17.914-39.077 20.08-60.853.058-.594-.268-1.37.604-1.697v-23.204c-1.18-3.173-1.055-6.556-1.563-9.834" fill="#fff"/></g></svg>