<svg xmlns="http://www.w3.org/2000/svg" viewBox="0 0 33 33" enable-background="new 0 0 33 33"><path fill="#fff" d="M32.1 10.1c.2-.7.4-1.3.6-2V8l-.1-.1-.2-.2-.1-.1-.1-.1-.2-.2c.1-.2.1-.2 0-.3-.1-.2-.3-.3-.4-.4l-.2-.2-.2-.2c-.2-.1-.4-.2-.5-.3l-.3-.2-.3-.1c-.2-.1-.4-.2-.5-.2l-.1-.1h-.1l-.3-.1h-.2l-.4-.2c-.2 0-.4-.1-.6-.1v-.2l-.1-.3v-.2l-.1-.3v-.1l-.1-.1c-.1-.2-.1-.4-.2-.5l-.1-.3-.1-.2c-.1-.2-.2-.3-.3-.5-.2-.1-.3-.2-.3-.2l-.2-.2-.4-.4-.2-.2-.2-.2-.1-.1-.1-.1-.2-.2c-.7.2-1.3.3-2 .6-.7.2-1.3.5-2 .7-.3.1-.5.2-.8.3-.2-.1-.4-.3-.6-.4-.3-.2-.7-.4-1-.6-.3-.2-.7-.4-1-.5l-.3-.1c-.1 0-.2-.1-.3-.1H17c-.1 0-.2 0-.3-.1h-.4c-.1 0-.2.1-.3.1l-.3.1c-.4.2-.7.3-1 .5-.3.2-.7.4-1 .6-.2.1-.4.2-.5.3-.3-.1-.6-.3-.9-.4-.6-.3-1.3-.5-2-.7C9.3.8 8.6.6 8 .5h-.2l-.3.1-.1.1-.1.1-.2.2c-.1.1-.2.1-.2.2-.2.1-.3.3-.5.4 0 .1-.1.1-.2.2 0 .1-.1.2-.1.2-.2.2-.3.3-.4.5l-.1.3-.2.2c-.1.2-.1.4-.2.6v.2l-.2.3v.2l-.1.4c0 .2-.1.4-.1.6h-.7l-.3.2h-.1l-.2.1c-.1.1-.3.1-.5.2l-.2.1-.3.2c-.2.1-.3.2-.5.3l-.2.2c-.1 0-.1.1-.2.1-.1.2-.3.3-.4.4-.1.1-.1.2-.2.3l-.2.2v.1l-.1.1-.2.2c.2.7.3 1.3.6 2 .2.7.5 1.3.7 2 .1.2.2.4.3.7l-.9 1.5c-.2.3-.4.7-.5 1.1l-.1.3c0 .1-.1.2-.1.3l-.1.1V16.9l.1.1c0 .1.1.2.1.3l.1.3c.1.4.3.8.4 1.1l.9 1.5c-.2.3-.3.7-.4 1-.3.6-.5 1.3-.7 2-.2.7-.4 1.3-.6 2v.1l.1.1.2.2.1.1.1.1.2.2c-.1.2 0 .3 0 .3.1.2.3.3.4.4l.2.2.2.2c.2.1.3.2.5.3l.3.2.3.1c.2.1.4.2.5.2l.2.1h.1l.3.2h.2l.3.1c.2 0 .4.1.5.1v.2l.1.3v.2l.1.3v.1l.1.1c.1.2.1.4.2.5l.1.3.1.2c.3.3.4.4.5.6l.2.2.2.2.4.4.2.2.2.2.1.1.1.1.2.2c.7-.2 1.3-.3 2-.6.7-.2 1.3-.5 2-.7.4-.1.7-.3 1.1-.5.4.3.8.5 1.2.7.3.2.7.4 1.1.5l.3.1c.1 0 .2.1.3.1l.1.1H17l.1-.1c.1 0 .2-.1.3-.1l.3-.1c.4-.2.7-.3 1.1-.5.4-.2.8-.4 1.1-.7.4.2.8.3 1.1.5.6.3 1.3.5 2 .7.7.2 1.3.4 2 .6h.1l.1-.1.2-.2.1-.1.1-.1.2-.2.2-.2c.2-.1.3-.3.4-.4l.2-.2.2-.2c.1-.2.2-.3.3-.5l.2-.3.1-.3c.1-.2.2-.4.2-.5l.1-.1v-.1l.1-.3v-.2l.1-.3c0-.2.1-.4.1-.6h.2l.3-.1h.2l.3-.1h.1l.1-.1c.2-.1.4-.1.5-.2l.3-.1.2-.1c.2-.1.3-.2.5-.3l.2-.2.2-.2.4-.4.2-.2.2-.2.1-.1.1-.1.2-.2c-.2-.7-.3-1.3-.6-2-.2-.7-.5-1.3-.7-2-.2-.4-.3-.8-.5-1.2.1-.2.2-.3.3-.5.2-.3.4-.7.6-1 .2-.3.4-.7.5-1l.1-.3c0-.1.1-.2.1-.3v-.2c0-.1 0-.2.1-.3 0-.1 0-.2-.1-.3V16c0-.1-.1-.2-.1-.3l-.1-.3c-.2-.4-.3-.7-.5-1-.2-.3-.4-.7-.6-1 0-.1-.1-.1-.1-.2.2-.3.3-.7.4-1 .6-.8.8-1.4 1-2.1zm-4.3-.2c.3.3.7.6 1 .9.5.5 1 1.1 1.4 1.7.2.2.3.5.5.8-.4.8-.8 1.7-1.2 2.5-.2.3-.3.6-.5.9-.2-.3-.3-.5-.5-.8-.1-1.5-.5-3-1.1-4.3.1-.4.2-.9.3-1.3 0-.1 0-.3.1-.4zM16.5 28.1C10.2 28.1 5 22.9 5 16.5S10.2 5 16.5 5c6.4 0 11.6 5.2 11.6 11.5s-5.2 11.6-11.6 11.6zm8-2.7v.2c0 .1-.1.2-.1.3v.1s0 .1-.1.1c0 .1-.1.2-.1.2 0 .1-.1.2-.1.2-.1.2-.2.3-.3.5-.1.2-.3.4-.4.6-.1 0-.3-.1-.4-.1l-1.2-.3c.9-.4 1.8-1.1 2.7-1.8zm-7 3l-.1.1-.9.6c-.3-.2-.6-.4-.8-.6-.1 0-.1-.1-.2-.1.4 0 .7.1 1.1.1.3-.1.6-.1.9-.1zm-5.8-1c-.5.1-1 .3-1.6.4-.1 0-.2 0-.3.1-.2-.3-.4-.5-.6-.8-.1-.2-.2-.3-.3-.5 0-.1-.1-.2-.1-.2 0-.1-.1-.2-.1-.2s0-.1-.1-.1V26c0-.1-.1-.2-.1-.3v-.2c1 .7 2.1 1.4 3.2 1.9zm-4.1-3c-.1 0-.2-.1-.3-.1-.1 0-.2-.1-.3-.1h-.1s-.1 0-.1-.1c-.1 0-.2-.1-.2-.1-.1 0-.2-.1-.2-.1-.2-.1-.3-.2-.5-.3-.1-.1-.2-.1-.2-.2s.1-.3.1-.4c.1-.4.2-.8.3-1.1.3.9.9 1.8 1.5 2.5zM5.7 11.6c-.1-.4-.2-.9-.3-1.3 0-.2-.1-.4-.1-.7.2-.1.4-.3.6-.4.1-.1.3-.2.4-.2.1 0 .2-.1.2-.1.1 0 .2-.1.2-.1s.1 0 .1-.1h.1c.1 0 .2-.1.3-.1.1 0 .2 0 .3-.1h.2c-.8.9-1.5 1.9-2 3.1zm3-4v-.1c0-.1 0-.2.1-.2 0-.2 0-.3.1-.3v-.1s0-.1.1-.1c0-.2 0-.2.1-.3 0-.1.1-.2.1-.2.1-.2.2-.3.3-.5 0 0 0-.1.1-.1.2 0 .4.1.6.1.2.1.5.1.8.2-.8.4-1.6 1-2.3 1.6zM16 4.7l.6-.3c.2.1.4.2.6.4h-.6c-.3-.2-.5-.2-.6-.1zm5.7 1.1l1.2-.3c.1 0 .3-.1.4-.1.1.1.2.2.2.4.1.2.2.3.3.5 0 .1.1.2.1.2 0 .1.1.2.1.2s0 .1.1.1v.1c0 .1.1.2.1.2 0 .1 0 .2.1.2v.1c-.8-.5-1.6-1.1-2.6-1.6zm5.4 5.3c-.5-.9-1-1.7-1.7-2.5.1 0 .2 0 .2.1.1 0 .2.1.2.1h.1s.1 0 .1.1c.1 0 .2.1.2.1.1 0 .2.1.2.1.2.1.3.2.5.3.1.1.2.2.3.2 0 .2-.1.4-.1.6.2.3.1.6 0 .9zm.2 10.6c.1.5.2.9.3 1.4v.1c-.2.1-.3.2-.5.4-.2.1-.3.2-.5.3-.1 0-.2.1-.2.1-.1 0-.2.1-.2.1s-.1 0-.1.1H26c-.1 0-.2.1-.2.1h-.1c.6-.9 1.1-1.7 1.6-2.6zm.2-.4v-.2c.5-1.1.8-2.3.9-3.6.2-.2.4-.5.5-.8.2.3.3.5.5.8.4.7.8 1.5 1.1 2.3-.1.2-.2.3-.3.5-.4.6-.9 1.2-1.4 1.7l-.8.8c-.2-.4-.3-1-.5-1.5zm.9-5.3c.2.2.3.5.4.7-.2.2-.3.5-.5.7v-.9c.1-.1.1-.3.1-.5zm-.8-10.8V8.6c0 .2-.1.5-.1.7-.1-.1-.2-.1-.3-.2-.2-.1-.3-.2-.5-.3-.1 0-.2-.1-.2-.1-.1 0-.2-.1-.2-.1s-.1 0-.1-.1h-.1c-.1 0-.2-.1-.3-.1-.1 0-.2 0-.3-.1H25.2c-.2-.1-.4-.3-.6-.5V7.5c0-.1 0-.2-.1-.3 0-.1-.1-.2-.1-.3v-.1s0-.1-.1-.1c0-.1-.1-.2-.1-.2 0-.1-.1-.2-.1-.2-.1-.3-.2-.5-.3-.6-.1-.1-.1-.2-.2-.3.3-.1.6-.1.9-.2h3.1zm-6.4-3.1c.6-.2 1.3-.5 2-.7.6-.2 1.3-.4 1.9-.5l.1.1.1.1.1.1.2.2.2.2.4.4.2.2.2.2c.1.1.2.3.3.4V3l.1.2c.1.2.1.3.2.5v.2l.1.3v.2l.1.3v.1H24.2c-.4.1-.7.1-1.1.2-.3-.4-.6-.8-1-1.1-.5-.5-1.1-1-1.7-1.5-.1 0-.1-.1-.2-.1.5 0 .7-.1 1-.2zm-.8.6c.6.4 1.2.9 1.7 1.4.3.3.6.6.9 1-.6.1-1.3.3-1.9.5-1.2-.5-2.5-.8-3.9-.9-.2-.1-.4-.3-.6-.4.3-.2.5-.3.8-.4.9-.5 1.8-.9 2.7-1.3.1 0 .2.1.3.1zm-6.9-.6c.3-.2.6-.4 1-.6.3-.2.7-.4 1-.5l.3-.1c.1 0 .2-.1.3-.1h.5c.1 0 .2.1.3.1l.6.1c.3.2.7.3 1 .5.3.2.7.4 1 .6.1.1.3.2.4.3-.9.4-1.7.8-2.6 1.3-.3.2-.5.3-.8.5-.2-.2-.5-.4-.8-.6-.8-.5-1.6-.9-2.5-1.3.1 0 .2-.1.3-.2zm-.5.3c.9.4 1.8.8 2.6 1.3.3.2.6.3.8.5-.2.1-.4.3-.7.4-1.5.1-3 .5-4.3 1.1-.4-.1-.8-.2-1.3-.3-.1 0-.3-.1-.4-.1.3-.4.7-.8 1.1-1.2.5-.5 1.1-1 1.7-1.4.2-.1.4-.2.5-.3zM5.2 4.8l.1-.3v-.2l.1-.3v-.2c.1-.2.1-.3.2-.5l.1-.3.3-.3c.1-.2.2-.3.3-.5 0-.1.1-.1.2-.2l.2-.2c.1-.2.2-.3.3-.4l.2-.2.3-.2.1-.1.1-.1.2-.2c.7.1 1.3.3 2 .6.7.2 1.3.4 2 .7.3.1.5.2.8.3-.1.1-.2.1-.3.2-.6.5-1.2.9-1.7 1.5-.4.4-.8.9-1.2 1.4-.3 0-.6-.1-1-.1L8 5.1H5c.2 0 .2-.2.2-.3zM5 6.4V5.5H8.4c.3 0 .5.1.8.1 0 .2-.1.4-.2.5 0 .1-.1.2-.1.2 0 .1-.1.2-.1.2s0 .1-.1.1v.1c0 .1-.1.2-.1.3 0 .1 0 .2-.1.3v.4c-.2.2-.3.4-.5.5h-.5c-.1 0-.2 0-.3.1 0 .1-.1.1-.2.1h-.1s-.1 0-.1.1c-.1 0-.2.1-.3.1-.1 0-.2.1-.3.1-.2.1-.3.2-.5.3-.1 0-.2.1-.2.2-.1 0-.2.1-.3.1 0-.2-.1-.5-.1-.7V7.4L5 7v-.6zm0 3.5c.1.7.3 1.4.5 2.1v.1c-.5 1.2-.8 2.4-.8 3.7-.2.2-.4.5-.5.8-.2-.3-.4-.6-.5-.9-.5-.9-.9-1.9-1.3-2.8.1-.2.2-.3.4-.5.4-.6.9-1.2 1.5-1.7.1-.3.4-.6.7-.8zm-.3 7.5c-.2-.2-.3-.5-.5-.7.1-.2.3-.5.5-.7v.6c-.1.2-.1.5 0 .8zm-2.8-5.5c-.2-.6-.5-1.3-.7-2-.1-.5-.3-1.2-.4-1.8L.9 8l.1-.2.1-.1.2-.2.2-.2c0-.1.2-.2.3-.3.1-.1.1-.2.2-.2l.2-.2c.1-.1.3-.2.4-.3l.2-.1.2-.1c.3-.1.5-.1.6-.2h.2l.3-.1h.2l.3-.1h.1V8.9c0 .3.1.6.2.9l-.1.1c-.1-.2-.2-.1-.2-.1-.1.1-.2.2-.3.2l-.4.4-.4.4-.4.4-.2.2c-.1.1-.1.2-.2.2-.1.2-.2.3-.4.5-.1.1-.2.2-.2.3 0-.1-.1-.3-.2-.5zm.1 7.7c-.2-.3-.4-.7-.6-1-.2-.3-.4-.7-.5-1l-.1-.3c0-.1-.1-.2-.1-.3v-.2c0-.1 0-.2-.1-.3v-.4c0-.1.1-.2.1-.3l.1-.3c.2-.4.3-.7.5-1 .2-.3.4-.7.6-1 .1-.1.1-.2.2-.3.4.9.9 1.8 1.4 2.7.2.3.3.6.5.9-.2.3-.4.6-.5.9-.5.8-.9 1.6-1.3 2.4 0-.3-.1-.4-.2-.5zm3 5.1V28.3c-.1 0-.3 0-.4-.1l-.3-.1h-.2l-.3-.1h-.2c-.2-.1-.4-.1-.5-.2l-.3-.1-.2-.1c-.2-.1-.3-.2-.5-.3l-.2-.2-.2-.2-.4-.4-.2-.2-.2-.2-.1-.1-.1-.1-.2-.2c.2-.7.3-1.3.6-2 .2-.7.4-1.3.7-2 .1-.3.2-.6.4-.9.1.1.1.2.2.3.1.2.2.3.4.5.1.1.1.2.2.2l.2.2.4.4.4.4.4.4c0-.3.1-.2.2-.2l.2.2c.1.1.3.2.4.3-.1.4-.1.8-.2 1.2zm-.9-2.4c-.5-.5-1-1.1-1.5-1.7-.1-.1-.2-.3-.3-.5.4-.8.8-1.7 1.2-2.5.2-.3.3-.6.5-.9.2.3.4.5.5.8.1 1.4.5 2.7 1 4-.1.5-.3 1-.4 1.5v.2c-.2-.2-.6-.6-1-.9zm1.3 5.8V24.7c.1-.3.1-.6.2-.9.1 0 .1.1.2.1.1.1.2.2.4.2.1 0 .2.1.3.1.1 0 .2.1.3.1 0 0 .1 0 .1.1H7c.1 0 .2.1.3.1.1 0 .2 0 .3.1H7.9c.1.2.2.4.4.5v.2c0 .1 0 .2.1.3 0 .1.1.2.1.3v.1s0 .1.1.1c0 .1.1.2.1.3 0 .1.1.2.1.3.1.1.2.3.3.5 0 .1.1.2.2.2.1.1.1.2.2.2.1.1.1.2.2.3-.5.1-.8.1-1.2.2H5.4zm6.4 3.2c-.6.2-1.3.5-2 .7-.6.2-1.3.4-1.9.5l-.1-.1-.1-.1-.1-.1-.2-.2-.2-.2-.4-.4-.2-.2-.2-.2c-.1-.1-.2-.3-.3-.4l-.1-.2-.1-.2c-.1-.2-.1-.3-.2-.5v-.2l-.1-.3V29l-.1-.3v-.1H8.7c.4-.1.8-.1 1.3-.2 0 0 0 .1.1.1l.2.2.4.4.4.4.4.4.2.2c.1.1.2.1.2.2.2.1.3.2.5.4.2.1.4.3.6.4-.5-.1-.8 0-1.2.2zm.6-1.1c-.6-.4-1.2-.9-1.7-1.5-.2-.2-.4-.4-.5-.6.6-.1 1.2-.3 1.7-.4.1 0 .2-.1.4-.1 1 .4 2 .6 3 .7.1.1.2.1.3.2.3.2.5.4.8.5-.3.2-.5.3-.8.4l-2.4 1.2c-.3-.1-.5-.2-.8-.4zm6.2 1.2c-.3.2-.7.4-1 .5l-.3.1c-.1 0-.2.1-.3.1h-.2c-.1 0-.2 0-.3.1-.1 0-.2 0-.3-.1H16c-.1 0-.2-.1-.3-.1l-.3-.1c-.4-.2-.7-.3-1-.5-.3-.2-.7-.4-1-.6.8-.4 1.5-.7 2.3-1.2.3-.2.5-.3.8-.5.3.2.6.4.9.5.7.4 1.5.8 2.2 1.2-.3.3-.6.4-1 .6zm1.1-.6c-.8-.4-1.6-.7-2.3-1.2-.3-.2-.6-.3-.8-.5l.9-.6c.1-.1.2-.1.2-.2 1.3-.1 2.5-.4 3.6-.9.5.1 1.1.3 1.6.4h.2c-.2.3-.5.6-.8.8-.5.5-1.1 1-1.7 1.5-.3.3-.6.5-.9.7zm8.1-2.2l-.1.3v.2l-.1.3v.2c-.1.2-.1.3-.2.5l-.1.3-.3.3c-.1.2-.2.3-.3.5l-.2.2-.2.2-.4.4-.2.2-.2.2-.1.1-.1.1-.2.2c-.7-.1-1.3-.3-2-.6-.7-.2-1.3-.4-2-.7-.4-.1-.7-.3-1-.4.2-.2.5-.3.7-.5.2-.1.3-.2.5-.4.1-.1.2-.1.2-.2l.2-.2.4-.4.4-.4.4-.4.2-.2.2-.2.1-.1c.4.1.7.1 1.1.2H28.1c-.2 0-.3.1-.3.3zm.2-1.7V27.8H24.6c-.3-.1-.6-.1-.9-.2.1-.1.1-.2.2-.2.1-.1.1-.2.2-.2.1-.2.2-.3.3-.5 0-.1.1-.2.1-.3 0-.1.1-.2.1-.3 0 0 0-.1.1-.1v-.1c0-.1.1-.2.1-.3 0-.1 0-.2.1-.3v-.2l.7-.7h.1c.1 0 .2 0 .3-.1.1 0 .2-.1.3-.1h.1s.1 0 .1-.1c.1 0 .2-.1.2-.1.1 0 .2-.1.2-.1.2-.1.3-.2.5-.3.1-.1.3-.2.4-.3.1.4.2.8.2 1.3v2.3zm3.1-5.5c.2.6.5 1.3.7 2 .2.6.4 1.3.5 1.9l-.1.1-.1.1-.1.1-.2.2-.2.2-.4.4-.2.2-.2.2c-.1.1-.3.2-.4.3l-.2.1-.2.1c-.2.1-.3.1-.5.2h-.2l-.3.1h-.2l-.3.1h-.1V24.5c-.1-.5-.2-1-.3-1.4.3-.3.7-.6 1-.9.5-.5 1-1.1 1.5-1.7.1-.1.1-.2.2-.3 0 .4.2.8.3 1.2zm.3-7c.2.3.4.7.5 1l.1.3c0 .1.1.2.1.3v.5c0 .1-.1.2-.1.3l-.1.3c-.2.3-.3.7-.5 1-.2.3-.4.7-.6 1-.1.1-.1.2-.2.3-.3-.7-.7-1.5-1.1-2.2-.2-.3-.3-.6-.5-.9.2-.3.4-.6.5-.9.5-.8.9-1.6 1.2-2.4.3.8.5 1.1.7 1.4zm-.5-1.5c-.1-.2-.3-.4-.4-.6-.5-.6-.9-1.2-1.5-1.7-.4-.4-.7-.7-1.2-1 .1-.3.1-.6.2-.9V5.1c.2 0 .3 0 .5.1l.3.1h.2l.3.1h.2c.2.1.4.1.5.2l.3.4.2.1c.2.1.3.2.5.3l.2.2.2.2.4.4.2.2.2.2.1.1.1.1.2.2c-.2.7-.3 1.3-.6 2-.2.7-.4 1.3-.7 2-.2.3-.3.6-.4.9z"/><path fill="#FFFFFF" d="M25.2 33.1H25c-.6-.2-1.3-.3-2-.6-.7-.2-1.3-.5-2-.7-.3-.1-.7-.3-1-.5-.3.2-.7.4-1 .6-.4.2-.7.4-1.1.5l-.4.2c-.1 0-.1.1-.2.1l-.3.1h-.9l-.4-.1c-.1 0-.1 0-.2-.1l-.4-.2c-.3-.2-.7-.3-1.1-.5-.4-.2-.8-.4-1.2-.7-.3.1-.7.3-1 .4-.7.3-1.3.5-2 .7-.7.2-1.4.4-2 .6h-.1l-.1-.1-.5-.3-.2-.2c-.1 0-.1-.1-.1-.1l-.1-.1-.3-.3-.1-.1c0-.1-.1-.1-.1-.2l-.1-.1c0-.1-.1-.1-.1-.2-.1-.1-.2-.2-.3-.4l-.1-.2-.1-.3c-.1-.1-.1-.3-.2-.4l-.1-.2v-.1l-.2-.5V29l-.1-.3c-.1 0-.3 0-.4-.1l-.3-.1h-.1l-.5-.1h-.1l-.2-.1c-.2-.2-.3-.3-.5-.4l-.3-.1-.3-.2c-.1-.1-.3-.2-.4-.3l-.1-.1c-.1 0-.1-.1-.2-.1l-.1-.1c-.1 0-.1-.1-.2-.1l-.1-.1-.3-.3-.1-.1c0-.1-.1-.1-.1-.2l-.4-.5-.3-.4v-.2c.2-.6.3-1.3.6-2 .2-.7.5-1.3.7-2 .1-.3.3-.6.4-.9-.3-.5-.6-1-.9-1.4-.2-.4-.4-.7-.5-1.1l-.2-.4c0-.1-.1-.1-.1-.2l-.1-.3V16l.1-.4c0-.1 0-.1.1-.2l.2-.4c.4-.2.5-.6.8-1 .3-.5.5-.9.9-1.4-.1-.2-.2-.4-.2-.6-.3-.7-.5-1.3-.7-2C.8 9.3.6 8.6.4 8v-.1l.1-.1.3-.5.2-.2c0-.1.1-.1.1-.1H1l.3-.3.1-.1c.1 0 .1-.1.2-.1l.1-.1c.1 0 .1-.1.2-.1l.1-.2c.1-.1.3-.1.4-.2l.2-.1.3-.1c.1-.1.3-.1.4-.2l.2-.1h.1l.5-.1h.1l.3-.1c0-.1 0-.3.1-.4l.1-.3v-.1l.1-.5v-.1l.2-.4c.1-.2.1-.3.2-.5l.1-.3.2-.3c.1 0 .2-.2.3-.3l.1-.1c0-.1.1-.1.1-.2l.1-.1c0-.1.1-.1.1-.2l.1-.1c.2-.1.3-.2.4-.3h.1c.1 0 .1-.1.2-.1l.5-.4.4-.3h.2c.6.2 1.3.3 2 .6.7.2 1.3.5 2 .7.3.1.5.2.8.3.1-.1.3-.2.4-.3.3-.2.7-.4 1-.6.4-.2.7-.4 1.1-.5l.4-.2c.1 0 .1 0 .2-.1l.3-.1H16.6c.1 0 .3 0 .3.1l.3.1c.1 0 .1 0 .2.1l.4.2c.3.1.7.3 1.1.5.3.2.7.4 1 .6.1.2.2.3.4.4.2-.1.5-.2.7-.3.7-.3 1.3-.5 2-.7.7-.2 1.4-.4 2-.6h.1l.1.1.5.3.2.2c.1 0 .1.1.2.1l.1.1.3.3.1.1c0 .1.1.1.1.2l.1.1c0 .1.1.1.1.2l.1.1c.1.1.2.2.3.4l.1.2.1.2c.1.1.1.3.2.4l.1.2v.1l.2.6v.1l.1.3c.1 0 .3 0 .4.1l.3.1h.1l.5.1h.1l.2.1c.2.1.3.1.5.2l.3.1.3.2c.1.1.3.2.4.3l.1.1c.1 0 .1.1.2.1l.1.1c.1 0 .1.1.2.1l.1.1.3.3.1.1.1.1.4.5.2.6v.2c-.2.6-.3 1.3-.6 2-.2.6-.5 1.3-.7 2-.1.3-.3.6-.4.9 0 0 0 .1.1.1.2.3.4.7.6 1 .1.3.3.5.4.7v-.1.1c0 .1.1.2.1.3l.2.4c0 .1 0 .1.1.2l.1.3c0 .1.1.2.1.3 0 .1 0 .2-.1.3l-.1.3c0 .1 0 .1-.1.2l-.2.4c-.1.3-.3.7-.5 1.1-.2.4-.4.7-.6 1-.1.1-.2.3-.3.4.2.4.3.8.5 1.1.3.7.5 1.3.7 2 .2.7.4 1.4.6 2v.1l-.1.1-.3.5-.2.2c0 .1-.1.1-.1.1l-.2.1-.3.3-.1.1c-.1 0-.1.1-.2.1l-.1.2c-.1 0-.1.1-.2.1l-.1.1c-.1.1-.2.2-.4.3l-.2.1-.3.1c-.1.1-.3.1-.4.2l-.2.1h-.1l-.5.1h-.1l-.3.1h-.1c0 .1 0 .3-.1.4v.5l-.1.5v.1l-.2.2c-.1.2-.1.3-.2.5l-.1.3-.2.3c-.1.1-.2.3-.3.4l-.1.1c0 .1-.1.1-.1.2l-.1.1c0 .1-.1.1-.1.2l-.1.1-.3.3-.1.1-.1.1-.5.4-.5.1zm-4.7-2.2c.2.1.5.2.7.3.6.3 1.3.5 1.9.7.7.2 1.3.4 1.9.5l.4-.3.2-.2.1-.1.1-.1.3-.3.1-.1.1-.1.1-.1.1-.1.1-.1.1-.1c.1-.1.2-.2.2-.3l.1-.2.1-.2c.1-.1.1-.3.2-.4l.1-.2v-.1l.1-.5v-.1l.1-.3v-.1h-2.3l-.9-.1c-.3-.1-.7-.1-1-.2l-.2.2-.2.2-.3.3-.1.1-.3.3-.1.1c-.1 0-.1.1-.2.1l-.3.3-.2.2c-.1 0-.1.1-.2.1l-.1.1c-.1.1-.2.2-.4.3l-.1.1c.1.2 0 .3-.2.4zM5.7 28.7v.2l.1.4v.1l.2.2c0 .1.1.3.2.4l.1.2.1.2c.1.1.1.2.2.3l.1.1.1.1.1.1.1.1.1.1.1.1.2.2.1.1.1.1.4.5c.6-.1 1.1-.3 1.8-.5.6-.2 1.3-.4 1.9-.7.2-.1.4-.2.6-.2-.1-.1-.2-.1-.3-.2v-.1c-.1-.1-.2-.2-.4-.3l-.1-.1c-.1 0-.1-.1-.2-.1l-.2-.2-.3-.3-.1-.1h-.1c-.1-.1-.3-.2-.4-.4l-.3-.3-.2-.2c-.4.1-.7.1-1.1.2l-.9.1H5.8l-.1-.1zm8.1 2.1c.2.1.5.3.7.4.4.2.7.4 1 .5l.4.1c.1 0 .1 0 .2.1l.3.1h.4l.3-.1c.1 0 .1 0 .2-.1l.4-.1c.3-.1.6-.3 1-.5l.6-.3c-.7-.3-1.3-.7-1.9-1-.3-.2-.5-.3-.8-.5-.2.1-.5.3-.7.4-.8.4-1.4.7-2.1 1zm3.2-1.7c.2.1.4.2.5.3.7.4 1.4.8 2.2 1.1.2-.2.5-.3.8-.5.7-.5 1.2-1 1.7-1.4.2-.2.3-.4.5-.5-.5-.1-1-.2-1.5-.4-1.1.5-2.3.8-3.5.9-.1 0-.1.1-.2.1-.1.1-.3.3-.5.4zm-6.4-.8l.3.3c.5.5 1 .9 1.7 1.4.2.2.4.3.7.4.8-.3 1.6-.7 2.3-1.1.2-.1.3-.2.5-.3-.2-.1-.3-.2-.5-.4-.1-.1-.2-.1-.2-.2-1-.1-2-.3-3-.7-.1 0-.2.1-.3.1-.6.3-1.1.4-1.5.5zm5.6.3c.1.1.2.1.3.2.1-.1.2-.1.3-.2h-.6zm-10.6-.7H7.8l.8-.1c.2 0 .5-.1.7-.1 0-.1-.1-.1-.1-.2l-.1-.1s0-.1-.1-.1c0-.1-.1-.1-.1-.2l-.1-.1c-.1-.1-.1-.3-.2-.4v-.1c0-.1-.1-.1-.1-.2l-.1-.3v-.1l-.1-.4-.1-.4V25c-.2.1-.3 0-.5-.1h-.1l-.4-.1-.4-.1h-.1l-.3-.1c-.1 0-.1-.1-.2-.1h-.1c-.1-.1-.3-.1-.4-.2 0 .2-.1.4-.1.6l-.1.8v2.1c.1 0 .1 0 .1.1zM16.5 5.2c-6.3 0-11.3 5.1-11.3 11.3 0 6.2 5.1 11.3 11.3 11.3s11.3-5.1 11.3-11.3c.1-6.2-5-11.3-11.3-11.3zM.8 25.2l.3.4.2.2.1.1v.1l.3.3.1.1.1.1s.1 0 .1.1l.1.1.1.1.1.1c.1 0 .2.1.3.1l.2.1.2.1c.1.1.3.1.4.2l.2.1h.1l.5.1h.1l.3.1h.1v-2.3l.1-.9c.1-.3.1-.7.2-1-.1-.1-.2-.2-.3-.2l-.2-.2-.3-.1-.3-.3-.1-.1-.3-.3-.1-.1c0-.1-.1-.1-.1-.2-.2 0-.3-.1-.3-.2l-.2-.2c0-.1-.1-.1-.1-.2l-.1-.1c-.1-.1-.2-.2-.3-.4l-.1-.1c0 .2-.1.4-.2.6-.3.6-.5 1.3-.7 1.9-.2.7-.4 1.4-.5 1.9zm23.8 2.4l.8.1H27.7V25.5l-.1-.8c-.1-.3-.1-.6-.2-.9-.1 0-.1.1-.2.1v.1c-.1.1-.2.1-.4.2h-.1c-.1 0-.1.1-.2.1l-.3.1h-.1l-.4.1-.3.1-.6.6-.1.4-.1.4v.1l-.1.3c0 .1-.1.1-.1.2v.1c-.1.1-.1.3-.2.4l-.1.1c0 .1-.1.1-.1.2v.1c.2 0 .4.1.6.1zM9 26l.1.2s0 .1.1.1v.1c.1.1.1.2.2.3l.1.1c.1.2.3.5.5.7h.1c.3-.1.7-.1 1-.2-.7-.3-1.4-.8-2.1-1.3zm19.2-2.7c.1.4.2.9.2 1.3l.1.9v2h.2l.4-.1h.1l.2-.1c.1 0 .3-.1.4-.2l.3-.1.2-.1c.1-.1.2-.1.3-.2l.1-.1.1-.1.1-.1.1-.1.1-.1.1-.1.2-.2.1-.1.1-.1.4-.5c-.1-.6-.3-1.1-.5-1.8-.2-.6-.4-1.3-.7-1.9-.1-.2-.2-.5-.3-.8-.5.7-1 1.3-1.5 1.7-.2.4-.5.6-.8.9zm-5.9 3.9c.2.1.4.1.7.1.1 0 .2 0 .3.1.1-.2.2-.3.3-.5l.1-.1c.1-.1.1-.2.2-.3v-.1l.1-.1.1-.2c-.6.4-1.2.7-1.8 1.1zM5.8 23.4l.1.1.1.1c.1.1.2.1.3.2h.1l.1.1.4.1H7c-.4-.5-.7-.9-1-1.4 0 .2-.1.4-.1.6 0 0 0 .1-.1.2zm21.4-1.1c-.3.5-.6 1-.9 1.4 0 0 .1 0 .1-.1h.1c.1-.1.2-.1.3-.2l.1-.1c.1-.1.2-.2.4-.3 0-.2 0-.5-.1-.7zM2.6 20c.1.1.2.2.2.3.5.7 1 1.2 1.4 1.7.3.3.6.5.9.8.1-.5.2-.9.3-1.4-.6-1.2-.9-2.5-1-3.9-.1-.2-.2-.3-.3-.5l-.3.6L2.6 20zm25.1 1.2c.1.5.2.9.3 1.3.2-.2.4-.3.5-.5.5-.5.9-1 1.4-1.7.1-.1.2-.2.3-.4-.3-.8-.7-1.5-1-2.2-.1-.2-.2-.3-.3-.5-.1.1-.2.3-.3.4-.1 1.3-.4 2.5-.9 3.6zM.8 16.4v.2l.1.3c0 .1.1.1.1.2l.1.4c.1.3.3.6.5 1 .2.3.4.7.6 1 .3-.7.7-1.4 1.1-2 .2-.3.3-.5.5-.8-.1-.2-.3-.5-.4-.7-.4-.7-.8-1.5-1.2-2.4-.2.3-.4.6-.5.9-.2.4-.4.7-.5 1l-.2.3c0 .1 0 .1-.1.2l-.1.3v.1zm28.4.3c.1.2.3.5.4.7l.9 1.8c.2-.3.4-.6.6-1 .2-.4.4-.7.5-1l.1-.3c0-.1 0-.1.1-.2l.1-.2V16.2l-.1-.3c0-.1 0-.1-.1-.2l-.1-.4c-.1-.3-.3-.6-.5-1-.1-.2-.2-.4-.4-.7-.3.7-.7 1.4-1.1 2 0 .6-.2.9-.4 1.1zm-.6-.9c.1.1.2.3.3.4l.3-.6c.4-.7.8-1.5 1.2-2.3-.1-.2-.3-.4-.4-.7-.5-.6-.9-1.2-1.4-1.7-.2-.3-.5-.5-.7-.7v.1l-.3 1.2c.6 1.4 1 2.8 1 4.3zm-26-2.9c.4 1 .8 1.9 1.3 2.7 0 .2.1.4.2.5.1-.1.2-.3.3-.4.1-1.2.4-2.5.8-3.6-.2-.6-.3-1.2-.4-1.8l-.5.5c-.5.5-.9 1-1.4 1.7-.1.1-.2.3-.3.4zm25.5-3.4c.4.3.7.6 1.1 1 .5.5 1 1.1 1.5 1.8.1.1.1.2.2.3.1-.2.2-.4.2-.5.3-.6.5-1.3.7-1.9.2-.7.4-1.3.5-1.9l-.3-.6-.2-.2-.1-.1-.1-.1-.3-.3-.1-.1-.1-.1-.1-.1-.1-.1-.1-.1-.1-.1c-.1-.1-.2-.2-.3-.2l-.2-.1L30 6c-.1-.1-.3-.1-.4-.2l-.2-.1h-.1l-.5-.1h-.1l-.3-.1h-.2v2.3l-.1.9c.1.3 0 .5 0 .8zM1 8.1c.1.6.3 1.1.5 1.8.2.6.4 1.3.7 1.9 0 .1 0 .1.1.2l.1-.1c.1-.1.2-.2.3-.4l.1-.1c0-.1.1-.1.1-.2l.1-.1c0-.1.1-.2.2-.3l.1-.1.1-.1c.1-.1.2-.3.4-.4l.1-.1c.1 0 .2-.1.3-.2l.4-.4c0-.2-.1-.5-.1-.7V5.9h-.2l-.4.1h-.1l-.2.1c-.1 0-.3.1-.4.2l-.2.1-.2.1c-.1.1-.2.1-.3.2l-.1.1-.1.1-.1.1-.1.1c-.1-.1-.1 0-.2 0l-.1.1c-.1.1-.1.2-.2.3l-.1.1-.1.1-.4.4zm4.5 1.6c0 .2.1.3.1.5.1.2.1.5.2.7.4-.8.9-1.5 1.4-2.1l-.2.1h-.1l-.3.1s-.1 0-.1.1h-.1l-.3.3H6c-.2.1-.3.2-.5.3zm20.6-.6c.3.4.7.9.9 1.4 0-.1 0-.2.1-.3 0-.2.1-.3.1-.5-.1 0-.1-.1-.2-.1l-.1-.1c-.1-.1-.2-.1-.3-.2h-.1s-.1 0-.1-.1l-.3-.1zm-.8-.9h.1l.4.1.4.1h.1l.3.1c.1 0 .1.1.2.1h.1c.1.1.3.1.4.2l.1.2c0-.1 0-.3.1-.4l.1-.8V5.4H25.4l-.8.1c-.2 0-.4.1-.6.1v.1c.1.1.1.2.2.4v.1c0 .1.1.1.1.2l.1.3v.1l.1.4.1.4v.2c.4 0 .5.2.7.4zm-20 .4c0 .1 0 .2.1.3h.1c.1 0 .1-.1.2-.1l.1-.1s.2-.1.3-.1h.1c.1 0 .1-.1.2-.1l.3-.1h.1l.4-.1.4-.3H7.9l.3-.3v-.2l.2-.5.1-.3v-.1l.1-.3c0-.1.1-.1.1-.2V6c0-.1.1-.2.1-.2-.1 0-.3-.1-.4-.1H5.2v2.1l.1.8zm4.3-2.7c-.1.2-.2.3-.2.4v.1l-.1.1-.1.3v.1c.4-.3.8-.6 1.3-.9-.1 0-.2 0-.3-.1-.3.1-.4.1-.6 0zm12.7 0c.6.3 1.1.7 1.6 1v-.1l-.1-.3s0-.1-.1-.1v-.1c-.1-.1-.1-.2-.2-.3l-.1-.1c0-.1-.1-.1-.2-.2-.1 0-.2 0-.3.1-.2 0-.4 0-.6.1zm-12.2-.7c.1 0 .1.1 0 0 .5.1.9.2 1.3.3 1.4-.6 2.8-1 4.3-1.1.1-.1.2-.1.3-.2-.2-.1-.4-.2-.5-.3-.8-.4-1.6-.8-2.5-1.2-.1.1-.2.2-.3.2-.6.5-1.2.9-1.7 1.4l-.9.9zm7.2-.8c1.3.1 2.6.4 3.9.9.5-.1 1-.3 1.5-.4-.2-.2-.4-.5-.7-.7-.5-.5-1-.9-1.7-1.4-.1-.1-.2-.1-.2-.2-.9.4-1.8.8-2.6 1.2-.2.1-.3.2-.5.3.1.2.2.3.3.3zm-10.4.5H7.8l.9.1c.1 0 .4 0 .7.1.3-.4.7-.9 1.1-1.3.5-.5 1.1-1 1.7-1.5-.1-.1-.3-.1-.4-.2-.6-.3-1.3-.5-1.9-.7-.7-.2-1.4-.3-1.9-.5l-.4.3-.2.2-.1.1h-.1l-.3.3-.1.1-.1.1s0 .1-.1.1l-.1.1-.1.1v.1c-.1.2-.2.3-.2.4L6 3l-.1.3c-.1.1-.1.2-.2.4V4l-.2.4v.1l-.1.3v.1h1.5zm14-2.5c.6.5 1.2.9 1.6 1.4.4.4.7.7.9 1 .3-.1.6-.1 1-.2l.9-.1h2v-.2l-.2-.3v-.1l-.1-.2c0-.1-.1-.3-.2-.4l-.1-.2-.1-.2c-.1-.1-.1-.2-.2-.3l-.1-.1-.1-.1-.1-.1-.1-.1-.1-.1c.1-.1.1-.1 0-.1l-.2-.2-.1-.1-.1-.1-.5-.4c-.6.1-1.1.3-1.8.5-.6.2-1.3.4-1.9.7-.2-.1-.3 0-.4 0zm-7.3-.1c.8.4 1.5.7 2.2 1.1.3.2.5.3.8.5.2-.1.5-.3.7-.4.7-.4 1.5-.8 2.2-1.1 0 0-.1 0-.1-.1-.3-.2-.6-.4-1-.6-.4-.2-.7-.4-1-.5l-.3-.1c-.1 0-.1 0-.2-.1h-.8c-.1 0-.1 0-.2.1l-.3.1c-.3.1-.6.3-1 .5-.3.2-.6.4-1 .6z"/><path fill="#fff" d="M22.4 14z"/><path fill="#FFFFFF" d="M22.6 14.1l-.2-.1-.2.1.2-.1-.2-.2.1-.1h.2l.2.3z"/><path fill="#fff" d="M23.6 12.4c-.1 0-.2-.1-.4-.1 0-.1 0-.2-.1-.2-.1.1-.2.1-.2.3-.2 0-.2.1-.2.3 0 .1 0 .2.1.3.1.1.1.2.1.4.1 0 .1-.2.2-.2.2-.1.3-.3.5-.2.1 0 .3 0 .3-.2-.1-.3-.2-.4-.3-.4zm-.6.1c-.1 0-.2-.1-.1-.2h.2c0 .1 0 .1-.1.2z"/><path fill="#FFFFFF" d="M22.5 13.6l.1-.3c0-.1 0-.1-.1-.2s-.1-.3-.1-.4c0-.1 0-.2.1-.4l.1-.1h.1c0-.1.1-.1.1-.1l.1-.1h.1c.2 0 .2.2.3.3.1 0 .2 0 .2.1.3.1.4.3.4.5s-.2.4-.5.4h-.1c-.1 0-.1 0-.2.1 0 0-.1 0-.1.1s-.1.2-.3.3l-.2-.2zm.4-.9s0 .1.1.1c0 0 .1 0 .1-.1h-.2zm.4-.2c0 .1-.1.1 0 0l-.1.1c.1 0 .2-.1.3 0-.1-.1-.1-.1-.2-.1z"/><path fill="#fff" d="M24.7 15.3c-.3-2-1.2-3.6-2.7-4.9-1.4-1.2-2.9-1.9-4.7-2H15.9c-.2.1-.3.1-.5.1-3.2.5-5.8 2.8-6.7 5.9l-.3 1.5V17.3c.1.2.1.3.1.5.4 2.3 1.5 4.1 3.3 5.5 1.2.9 2.6 1.4 4 1.5H17.2c.1-.1.2 0 .3-.1 2.7-.4 4.7-1.7 6.1-3.9.7-1.1 1-2.2 1.1-3.4v-2.1zm-14.4 2.4c-.2-.2-.3-.4-.3-.7v-.1c-.2-.1-.2-.3-.3-.4 0-.1-.1-.2-.2-.2-.2-.2-.2-.4-.3-.6v-.9c-.1 0 0 .1-.1.1 0-.2.1-.4.2-.6 0 .1 0 .3-.1.4.1-.2.2-.5.2-.7 0-.1 0-.3.1-.4.2-.5.4-1 .8-1.4.3-.4.6-.8 1-1.2l.9-.9c.4-.3.9-.5 1.4-.7h.1c-.2.2-.5.3-.7.5 0 .1.1.1.2.1-.2.1-.2.4-.5.5 0 .1 0 .1.2.1 0 .1-.1.1-.1.2h.1c0 .1-.1.1-.1.2.1 0 .2-.2.4-.2 0-.1 0-.1.1-.2s.2-.2.4-.2c-.2.1-.3.2-.5.3-.1.1-.1.2-.2.3.2 0 .3-.2.5-.2-.1.4-.4.4-.7.3 0 .1 0 .2-.1.1-.2-.1-.8.4-.8.6 0 .1.1.3.1.4.1.2 0 .4-.1.6.1 0 .1 0 .2-.1.2-.1.3-.3.4-.5.1-.2.2-.3.3-.5.1-.1.2-.1.3 0 .1.1 0 .1 0 .2-.1.1 0 .2 0 .3.1-.1.2-.1.3-.2 0 .3-.2.6.1.8-.1.1-.2 0-.2.1.1.1.2 0 .3.1-.2.1-.4.2-.6.2-.4 0-.5 0-.8.3.1 0 .2-.1.3-.1.1 0 .2-.1.3-.1 0 .1-.1.1-.2.2.1.1 0 .2 0 .3 0 .1.1 0 .1.1-.2 0-.3.2-.5.1.1-.1.2-.1.2-.2-.2-.1-.5 0-.6.2-.3 0-.4.2-.6.3-.1 0 0-.1-.1-.1-.1.1 0 .3-.2.4-.1.1-.2.1-.3.2-.1 0-.1.1-.1.2 0 .2-.1.4-.2.6 0-.3-.1-.5-.2-.7 0-.1-.1-.1-.1-.1-.1 0-.1 0-.1.1-.1-.1-.2-.1-.3-.2-.3 0-.3.2-.4.4-.1.2-.2.4-.1.7v.1c.1.2.2.2.3 0 .1-.1.1-.1.2 0 0 .1-.1.2-.1.3-.1.1-.1.3.1.3.1.1.2.2.2.3 0 .3.1.5.2.7.4.4.3.3.3.2zm4.8 3s-.1 0 0 0c-.3.2-.4.3-.4.6s-.2.6-.5.6c-.2 0-.2 0-.4.2.1.2.1.3-.1.3h-.1c-.1.2-.2.2-.4.1h-.1c0 .1.1.2.2.3-.1.1-.3 0-.4 0 0 0 0 .1-.1.1.1 0 .1.1.2.1-.1 0 0 .2-.1.2.1.1.2.1.2.3.1.1.3.1.4.3-.2 0-.4-.1-.6-.3-.5-.4-.8-.8-1-1.4-.2-.5-.4-1-.7-1.4-.3-.4-.5-.9-.7-1.4-.1-.2-.1-.4-.1-.6 0-.1.1-.1.1-.2.1-.2.1-.4.1-.6.3.1.3-.4.6-.2v.3c.2-.1.4 0 .5 0 .2 0 .3.1.5.2 0 .1-.1 0-.1.1.1 0 .3 0 .3.2 0 .1.2.1.3.1.2 0 .4.2.5.4.1.1.1.2.1.4 0 .1-.1 0-.1 0 0 .2.2.3.3.2.1-.1.2 0 .2 0 .3.2.6.3.9.5.1.1.3.1.4.2.2.2.2.3.1.4zm1.3-9.5c-.1.1-.1 0-.1 0-.1.1 0 .1.1.2-.1.1-.2.1-.3.2-.2.1-.3.1-.5.2s-.3.2-.4.3c-.1.1-.2.2-.3.4-.1-.1-.2-.2-.3-.4V12c.1-.1.1-.3.1-.5 0-.1.1-.1.2-.2 0-.1-.1-.1-.1-.1.1 0 .2 0 .2-.1.1-.1 0-.1 0-.1.2-.4.2-.5-.1-.6v-.1c.1 0 .2-.2.3-.2.1 0 .2 0 .3-.2 0-.1.2-.1.3-.1.1 0 .2 0 .3-.1.1 0 .1 0 .2-.1 0 0 0 .1.1.1 0 0-.1 0-.1.1h.2c-.1.3 0 .5 0 .8-.1 0-.1.2-.3.2.1.2.2.2.2.4zm1.4 1.4c.2 0 .2 0 .2.3 0 .1 0 .1.1.1.1.1.2.1.3.2 0 .1.1.1.1 0 0 .1-.1.1 0 .2-.2.1-.4.1-.5.2 0-.1.1-.1.1-.2v-.1h-.2c0-.1.1-.1 0-.2 0-.1.1 0 .2-.1 0-.1-.1-.2-.2-.1 0-.1-.1-.2-.1-.2v-.1zm-.1.5s.1 0 .1.1c-.1.2 0 .4-.3.4.1-.2 0-.4.2-.5zm5.9 6.4c-.1.2-.1.3-.2.5s-.2.5-.4.6c0-.5.4-.9.6-1.4.1.1 0 .2 0 .3zm.2-5.1c-.1.1-.1.3-.3.2 0 0 0 .1-.1.2-.1-.1-.1-.2-.2-.2 0 0-.1-.1-.1 0v.1c.1.1.1.3.3.3v.1c.1-.1.1-.2.1-.3.3.1.3.4.3.7 0 .4-.3.9-.5 1-.3-.4-.5-.9-1-1.2-.1.1 0 .1 0 .2l.3.3c.1.1.1.2.2.2.1.2.2.4.5.5.1.1.1.2.3.3.1-.1.1-.2.2-.3v-.1.1c-.2.8-.3 1.5-.4 2.3 0 .2-.1.4 0 .6 0 .2-.1.3-.2.5-.2.2-.3.5-.4.8-.3.7-.9 1.2-1.7 1.5.1-.2 0-.3 0-.5 0-.3-.1-.6-.1-.9 0-.1.1-.2.1-.3.2-.4.1-.7-.2-1l-.1-.1c-.1-.1-.2-.2-.1-.3 0-.1.1-.2.1-.2 0-.1 0-.2-.2-.2H20.3c-.1-.1-.2-.1-.4-.1-.3.1-.5.3-.8.3-.1 0-.3.1-.4.1h-.2c-.3-.2-.6-.4-.8-.7-.1-.1-.2-.2-.2-.3.1-.1.1-.2.1-.3v-.3c-.1-.3 0-.5.2-.7.1-.2.3-.4.5-.5l.1-.1c-.1-.2.1-.3.2-.4.1-.2.3-.3.5-.3 0 0 .1 0 .1-.1.4-.2.8-.2 1.2-.4 0 .1.1.2.1.3 0 0 0 .1.1.1.2 0 .5.2.7.2h.1c.1 0 .1-.1 0-.2.1-.1.2-.1.4-.1.3 0 .5-.1.7-.2v-.1c0-.2 0-.4-.1-.6-.1.1-.2.1-.2.2-.1.1-.2.1-.4 0 0 0-.1 0-.1-.1s-.2-.2-.3-.2c-.1.2-.1.3.1.3 0 .2 0 .2-.1.2v-.1c-.3-.3-.7-.6-1.1-.7.1.4.5.3.7.5 0 .1-.1 0-.1.1s.1.2 0 .3c-.1-.3-.4-.3-.6-.5-.1-.1-.2-.2-.4 0 0 0-.1 0-.2.1-.1 0-.2 0-.2.2v.1c-.2.1-.2.3-.2.4-.1.2-.2.3-.4.3h-.4c-.1-.2 0-.5-.1-.7.1-.1.3-.1.4-.1h.2c.1 0 .2-.1.1-.2l-.3-.3s-.1 0-.1-.1.1-.1.1-.1c.1 0 .2 0 .1-.2.1 0 .3 0 .3-.2h.1c.1 0 .1-.1.1-.2s.1-.1.2-.1c.1-.2-.1-.3-.1-.4l.1-.1c.1 0 .1.1.1.2 0 .2.1.2.3.1.1-.1.3-.1.4-.2.1-.1 0-.2-.1-.3 0-.1.1 0 .1-.1s-.1-.1-.1-.2.2-.1.2-.2c-.1-.1-.2-.1-.3.1 0 .1-.2 0-.3-.1-.1-.1-.1-.2-.1-.3 0-.1-.1-.2-.2-.2 0 .2.1.3.1.5 0 .1.1.2.2.2.1.1.1.1 0 .2.1.1.1.1.1.2l-.2.2-.3-.3-.2.2c-.2-.1-.3-.3-.4-.5.1-.2.2-.4.2-.6 0-.1-.1-.2-.1-.4 0-.1 0-.2.1-.3.1 0 .1-.1.1-.2l.9.3s.1 0 0 .1c0 0 0 .1-.1.1h-.3l.6.3c0-.2-.1-.3-.2-.4-.1-.1-.2-.1-.2-.2.1 0 .2.1.2.2h.1v-.2s-.1-.1 0-.1c.1-.1-.1-.1-.1-.2s.1-.1.2-.1c-.2-.1-.4-.2-.7-.4H19.9h-.1c0-.1-.1-.1-.2-.2-.3-.2-.7-.3-1-.4.1-.1.2-.1.2-.1v-.1c.6.1 1.2.4 1.8.7 2.1 1.2 3.5 3 4.1 5.3-.6-.4-.6-.8-.9-.9z"/></svg>